<?xml version="1.0" encoding="UTF-8"?>
<svg width="237px" height="187px" viewBox="0 0 237 187" version="1.1" xmlns="http://www.w3.org/2000/svg" xmlns:xlink="http://www.w3.org/1999/xlink">
    <title>undraw_trends_a5mf</title>
    <g id="Tags" stroke="none" stroke-width="1" fill="none" fill-rule="evenodd">
        <g id="iPhone-XS" transform="translate(-69.000000, -688.000000)" fill-rule="nonzero">
            <g id="tags" transform="translate(20.000000, 221.000000)">
                <g id="tag" transform="translate(0.000000, 460.000000)">
                    <g id="undraw_trends_a5mf" transform="translate(49.000000, 7.000000)">
                        <ellipse id="Oval" fill="#F2F2F2" cx="54.5" cy="183" rx="36.5" ry="4"></ellipse>
                        <ellipse id="Oval" fill="#F2F2F2" cx="130.5" cy="183" rx="36.5" ry="4"></ellipse>
                        <path d="M177.82987,104.927855 L181,85.8966579 L141.419599,77.5452778 L143.044393,29 L123.674222,29 L122.185264,73.4868599 L68.9039027,62.2446024 L70.0165899,29 L50.6464096,29 L49.6695675,58.1861844 L10.7400901,49.9721447 L7.56995734,69.0033286 L49.0148437,77.74813 L47.7520113,115.478834 L3.1701353,106.072145 L0,125.103329 L47.0972593,135.040757 L45.5255571,182 L64.8957374,182 L66.3316176,139.099178 L119.612978,150.341448 L118.553375,182 L137.923555,182 L138.847324,154.399853 L170.259918,161.027845 L173.430053,141.996648 L139.502066,134.837902 L140.764898,97.1071978 L177.82987,104.927855 Z M120.267702,130.779507 L66.9863414,119.537247 L68.2491738,81.8065301 L121.530535,93.0488003 L120.267702,130.779507 Z" id="Shape" fill="#3F3D56"></path>
                        <polygon id="Path" fill="#000000" opacity="0.2" points="125.744667 131 127 92.4780926 74.0373124 81 74 82.1432082 121.688346 92.4780926 120.470326 129.856792"></polygon>
                        <polygon id="Path" fill="#000000" opacity="0.2" points="127.466192 74 129 29 123.495138 29 122 72.8673593"></polygon>
                        <polygon id="Path" fill="#000000" opacity="0.2" points="146.037607 97 146 98.0019972 177.818148 104 178 103.025047"></polygon>
                        <polygon id="Path" fill="#000000" opacity="0.2" points="54.9117731 58 56 29 50.046405 29 49 56.8876684"></polygon>
                        <polygon id="Path" fill="#000000" opacity="0.2" points="145.037126 154 145 155.182306 170.820474 161 171 159.849604"></polygon>
                        <polygon id="Path" fill="#000000" opacity="0.2" points="72.0373124 139 72 140.122313 119.688346 150.268296 118.635165 182 123.946563 182 125 150.268296"></polygon>
                        <polygon id="Path" fill="#000000" opacity="0.2" points="47.401343 113.889184 52.731405 115 54 77.5612907 12.3677686 68.8841223 15.3698347 51.0808349 10.1846591 50 7 68.8841223 48.6322314 77.5612907"></polygon>
                        <polygon id="Path" fill="#000000" opacity="0.2" points="5.29868755 124.299987 8.26211826 106.104637 3.14341885 105 0 124.299987 46.7013125 134.377786 45.1428599 182 50.4412925 182 52 134.377786"></polygon>
                        <rect id="Rectangle" fill="#2F2E41" x="188" y="30" width="20" height="34"></rect>
                        <path d="M212.464004,28.0001272 C210.393057,34.2790023 207.217517,40 200.745648,40 C194.273779,40 189.391949,34.6169355 189.027302,28.0001272 C188.561347,19.5451525 194.124493,15.965232 200.745656,16.0002543 C208.567479,16.0416157 214.921727,20.5486182 212.464004,28.0001272 Z" id="Path" fill="#2F2E41"></path>
                        <path d="M192.350764,76 L185.376909,102.556713 C185.376909,102.556713 176.078434,104.90984 177.074698,107.262965 C178.070963,109.61609 188.033616,105.582162 188.033616,105.582162 L197,83.3955398 L192.350764,76 Z" id="Path" fill="#FFB9B9"></path>
                        <path d="M198,161.59999 C198,161.59999 203.937501,167.774995 200.187498,172 L208,172 L203,159 L198,161.59999 Z" id="Path" fill="#FFB9B9"></path>
                        <path d="M204.513296,171.546196 C204.513296,171.546196 204.513296,168.933125 201.914334,170.500967 C199.315372,172.06881 190.94093,176.249729 190.94093,176.249729 C190.94093,176.249729 185.165452,179.385416 193.539892,179.908032 C201.914332,180.430648 210,178.601495 210,177.556266 C210,176.511037 209.133678,171.506074 209.133678,171.506074 C209.133678,171.506074 207.401035,173.375349 204.513296,171.546196 Z" id="Path" fill="#2F2E41"></path>
                        <polygon id="Path" fill="#FFB9B9" points="205.3683 167 205 178.000086 212 179 212 168.333391"></polygon>
                        <circle id="Oval" fill="#FFB9B9" cx="199" cy="34" r="9"></circle>
                        <path d="M196,41.0311922 C196,41.0311922 200.439024,51.1351477 197.024389,54.5031224 C193.609755,57.8710971 202.146342,54.5031224 202.146342,54.5031224 C202.146342,54.5031224 206.585366,48.1039503 210,47.7671573 C210,47.7671573 204.878047,45.0727686 205.219511,38 L196,41.0311922 Z" id="Path" fill="#FFB9B9"></path>
                        <path d="M191.080833,89.6109687 L190.413936,105.039699 C190.413936,105.039699 178.409794,135.897159 183.078071,143.119117 C187.746348,150.341075 198.750149,163.471919 198.750149,163.471919 C198.750149,163.471919 205.085669,160.517481 205.085669,158.876128 C205.085669,158.876128 198.750149,143.447398 193.414973,139.836419 C193.414973,139.836419 193.748421,133.599273 198.750149,127.033856 L203.418426,143.119127 L205.419117,167.739439 C205.419117,167.739439 211.087741,169.709065 213.08843,168.724253 C213.08843,168.724253 217.423259,152.967252 214.422226,143.775668 L213.755327,118.498813 C213.755327,118.498813 222.424987,106.024521 211.421189,91.2523344 L209.753946,86 C209.753946,86 192.748076,87.6413452 191.080833,89.6109687 Z" id="Path" fill="#2F2E41"></path>
                        <path d="M206.729482,176.010057 C206.729482,176.010057 206.729482,172.613062 203.759237,174.651257 C200.788992,176.689453 191.218202,182.12465 191.218202,182.12465 C191.218202,182.12465 184.617663,186.201044 194.188447,186.880442 C203.759232,187.559841 213,185.181946 213,183.823146 C213,182.464346 212.009919,175.957899 212.009919,175.957899 C212.009919,175.957899 210.029755,178.38796 206.729482,176.010057 Z" id="Path" fill="#2F2E41"></path>
                        <path d="M199.777944,54.0052529 L209.908244,48 C209.908244,48 224.922299,48.3394112 223.955209,56.3382444 C223.955209,56.3382444 221.053937,66.670077 220.086847,65.6702183 L218.152665,63.6705113 C218.152665,63.6705113 211.060667,78.6683243 211.060667,81.6678874 C211.031562,83.5976332 210.705103,85.5102453 210.093577,87.3337292 L192.685957,90 C192.685957,90 194.620139,78.6683165 191.718867,76.6686199 C188.817595,74.6689232 187.850505,69.336353 190.751777,64.6703674 C191.854762,62.878585 192.813351,60.9960542 193.61785,59.0418093 C194.641071,56.5933122 196.568589,54.6693315 198.971345,53.698137 L198.971345,53.698137 L199.777944,54.0052529 Z" id="Path" fill="#464646"></path>
                        <path d="M221.991925,54 C221.991925,54 239.656734,68.3305507 236.657049,71.3299688 C233.657364,74.3293868 217.325747,86.3270588 217.325747,86.3270588 C217.325747,86.3270588 215.659257,96.325118 212.326274,95.9918497 C208.993291,95.6585813 212.99287,83.6609092 212.99287,83.6609092 L226.991398,70.330174 L219.325538,62.3317277 L221.991925,54 Z" id="Path" fill="#FFB9B9"></path>
                        <circle id="Oval" fill="#2F2E41" cx="200.5" cy="14.5" r="4.5"></circle>
                        <path d="M194.09092,12.5 C194.09113,10.1890755 196.212937,8.25390384 199,8.02272497 C198.820543,8.00801972 198.638694,8 198.454533,8 C195.442078,8 193,10.0147186 193,12.5 C193,14.9852814 195.442078,17 198.454533,17 C198.638682,17 198.820543,16.9919803 199,16.977275 C196.21294,16.7460907 194.091137,14.8109223 194.09092,12.5 Z" id="Path" fill="#2F2E41"></path>
                        <path d="M195.326019,23.8604411 C195.326019,23.8604411 195.226559,23.309324 191.336641,24.7613087 C187.446723,26.2132934 185.114969,36.9283034 187.059933,43.2202371 C187.843746,45.7558606 187.206129,47.584055 186.165447,48.8631986 C182.26017,53.6633327 183.797516,60.8730026 189.485853,63.3413984 C189.646414,63.4110725 189.810256,63.4799448 189.977379,63.5480153 L192.408584,65 C192.408584,65 189.309321,60.9408572 190.860309,55.7484696 C192.207229,51.3243546 192.373565,46.6273733 191.342943,42.1198378 C191.165004,41.3594466 190.962878,40.575631 190.733277,39.775741 C188.788313,32.9998124 189.73426,33.7823301 196.541633,27.0064015 C196.541633,27.0064015 200.431561,29.9103709 203.835248,31.3623556 C207.238935,32.8143403 210.156381,34.266325 207.725176,39.1062741 C205.293971,43.9462231 199.459079,48.3021772 203.349007,54.5941083 C207.238935,60.8860395 207.725176,58.4660675 207.238935,60.8860421 L207.238935,60.8860421 L206.752694,63.3060166 L209.67014,60.4020472 L207.725176,64.2740064 C207.725176,64.2740064 214.046309,64.2740064 215.991286,59.4340573 L216.963765,60.4020472 C216.963765,60.4020472 220.853693,53.6261185 213.560081,47.3341874 C213.560081,47.3341874 211.128876,45.8822027 214.532563,41.0422537 C217.93625,36.2023047 215.322177,25.796413 210.946008,23.8604334 C206.569839,21.9244538 195.326019,23.8604411 195.326019,23.8604411 Z" id="Path" fill="#2F2E41"></path>
                        <polygon id="Path" fill="#B8B6B6" points="100 10 95 8.14457891 90 6.28915781 94.2085539 3.14470214 98.4171078 0 99.2085539 5.00012323"></polygon>
                        <polygon id="Path" fill="#B8B6B6" points="96 48 91.000131 46.1160637 86 44.2318772 89.9701759 41.6159386 93.9403517 39 94.9703069 43.4998749"></polygon>
                        <polygon id="Path" fill="#B8B6B6" points="87 97 82 95.1445789 77 93.2891578 81.2085539 90.1447021 85.4171078 87 86.2085539 92.0001232"></polygon>
                        <polygon id="Path" fill="#B8B6B6" points="35 153.221548 30.5 155.610652 26 158 26.1308619 152.999878 26.2619735 148 30.6308619 150.610774"></polygon>
                        <polygon id="Path" fill="#C9C9C9" points="31 34.2215475 26.5 36.6106518 22 39 22.1308619 33.9998781 22.2619735 29 26.6308619 31.6107738"></polygon>
                        <path d="M54.1664365,175.290584 C57.3447213,180.813431 63.7547935,183 63.7547935,183 C63.7547935,183 65.0118474,176.232258 61.8335626,170.709408 C58.6552779,165.186559 52.2452057,163 52.2452057,163 C52.2452057,163 50.9881543,169.767724 54.1664365,175.290584 Z" id="Path" fill="#F2F2F2"></path>
                        <path d="M57.1634707,172.840441 C62.6863164,175.706089 65,181.688717 65,181.688717 C65,181.688717 58.3593776,183.025212 52.8365319,180.159563 C47.3136861,177.293914 45,171.31128 45,171.31128 C45,171.31128 51.6406224,169.974792 57.1634707,172.840441 Z" id="Path" fill="#464646"></path>
                        <path d="M155.021993,169.805662 C151.451719,175.052368 152.035444,182 152.035444,182 C152.035444,182 158.407732,180.441041 161.978007,175.194338 C165.548281,169.947634 164.964556,163 164.964556,163 C164.964556,163 158.59227,164.558959 155.021993,169.805662 Z" id="Path" fill="#464646"></path>
                        <path d="M157.940548,170.402272 C157.352782,176.477402 152.435752,181 152.435752,181 C152.435752,181 148.471683,175.672861 149.059452,169.597728 C149.647221,163.522595 154.564251,159 154.564251,159 C154.564251,159 158.528317,164.327139 157.940548,170.402272 Z" id="Path" fill="#464646"></path>
                        <path d="M219.403493,51.4107595 L218,60.9785823 L219.403493,64 C219.403493,64 225.578862,57.2018101 223.613972,53.425038 C221.649082,49.6482659 219.403493,51.4107595 219.403493,51.4107595 Z" id="Path" fill="#464646"></path>
                    </g>
                </g>
            </g>
        </g>
    </g>
</svg>