<?xml version="1.0" encoding="UTF-8"?>
<svg width="3404px" height="3404px" viewBox="0 0 3404 3404" version="1.1" xmlns="http://www.w3.org/2000/svg" xmlns:xlink="http://www.w3.org/1999/xlink">
    <title>sign_in</title>
    <g id="sign_in" stroke="none" stroke-width="1" fill="none" fill-rule="evenodd">
        <g id="Come-back-later" transform="translate(339.000000, 136.000000)" fill-rule="nonzero">
            <polygon id="Path" fill="#581EA1" points="729.297817 2179 81 2547.43926 1243.4476 3120 2021 2495.89859 1438.51065 2252.65383 1232.47952 2401.83261"></polygon>
            <polygon id="Path" fill="#FFFFFF" points="1294.41457 3001 1285.87115 2978.07563 1264 2970.08683 1284.84594 2961.22969 1294.41457 2939 1304.15406 2961.40336 1325 2970.08683 1304.83754 2978.59664"></polygon>
            <polygon id="Path" fill="#FFFFFF" points="1462.5 2551 1453.98045 2528.13966 1432 2520 1452.9581 2511.1676 1462.5 2489 1472.21229 2511.51397 1493 2520 1472.89385 2528.48603"></polygon>
            <polygon id="Path" fill="#FFFFFF" points="549.415813 2644 533.25183 2601.03075 492 2586.08492 531.399707 2569.61054 549.415813 2528 567.600293 2569.95022 607 2586.08492 569.115666 2602.04978"></polygon>
            <polygon id="Path" fill="#FFFFFF" points="1053.5 2728 1042.7677 2699.55088 1015 2689.5 1041.40487 2678.59735 1053.5 2651 1065.76549 2678.93805 1092 2689.5 1066.61726 2700.06195"></polygon>
            <polygon id="Path" fill="#FFFFFF" points="792.5 2322 781.767699 2293.38053 754 2283.5 780.575221 2272.42699 792.5 2245 804.765487 2272.7677 831 2283.5 805.617257 2294.06195"></polygon>
            <circle id="Oval" fill="#FFFFFF" cx="1023.5" cy="2500.5" r="9.5"></circle>
            <circle id="Oval" fill="#FFFFFF" cx="1501.5" cy="2361.5" r="9.5"></circle>
            <circle id="Oval" fill="#FFFFFF" cx="1610" cy="2691" r="11"></circle>
            <circle id="Oval" fill="#FFFFFF" cx="1787" cy="2527" r="11"></circle>
            <circle id="Oval" fill="#FFFFFF" cx="390" cy="2476" r="8"></circle>
            <circle id="Oval" fill="#FFFFFF" cx="1420" cy="2642" r="8"></circle>
            <circle id="Oval" fill="#FFFFFF" cx="910" cy="2788" r="8"></circle>
            <g id="Group" fill="#303030">
                <path d="M1509.14524,2249.14287 C1504.08133,2249.14287 1498.84862,2248.63284 1493.44712,2247.7828 C1370.39412,2227.04169 1338.82908,1789.77835 1325.66292,1462.51088 C1324.81893,1442.10979 1324.14374,1425.95892 1323.63735,1415.41836 C1318.40465,1321.06332 1227.59187,1205.28714 1208.8554,1182.33592 L800.029107,1277.88102 L544.808067,1409.29803 L454.670477,1592.2278 C452.476116,1596.64804 447.24341,1598.34813 442.854688,1596.13801 C438.465966,1593.92789 436.777997,1588.65761 438.972357,1584.23737 L530.460323,1398.75747 C531.304308,1397.05738 532.654684,1395.69731 534.342654,1394.84726 L793.108431,1261.56015 C793.783619,1261.22013 794.458807,1261.05012 795.133995,1260.88011 L1210.37458,1163.97494 C1213.58172,1163.2949 1216.78886,1164.31496 1218.98322,1166.86509 C1223.70954,1172.47539 1335.28435,1303.7224 1341.36104,1414.56832 C1342.03623,1425.27889 1342.54262,1441.42975 1343.3866,1462.00085 C1363.13585,1958.25734 1414.61893,2216.84114 1496.48547,2230.61188 C1516.9099,2234.01206 1535.47757,2229.42182 1552.86366,2216.67114 C1636.92456,2154.95784 1670.68395,1923.06546 1695.15952,1753.90643 C1706.63771,1674.6822 1715.75275,1612.11886 1727.56854,1581.68724 C1747.48658,1530.17449 1825.1332,1433.77934 1907.50612,1331.7739 C2001.52604,1215.31768 2108.03694,1083.22063 2136.73243,1006.03651 C2190.24107,862.208829 2232.60912,752.552975 2233.11551,751.362911 C2233.79069,749.492811 2235.14107,747.96273 2236.99784,746.942675 L2712.33015,474.248117 C2716.55007,471.86799 2721.95157,473.398072 2724.31473,477.47829 C2726.67789,481.728517 2725.15872,487.168807 2721.10759,489.548934 L2248.47603,760.71341 C2241.38656,779.07439 2202.05686,881.589863 2153.44333,1012.15683 C2123.73506,1092.0611 2020.9377,1219.56791 1921.34748,1342.82449 C1839.98733,1443.80988 1763.0159,1539.01496 1744.11064,1587.97757 C1733.13884,1616.5391 1723.68621,1681.31256 1712.7144,1756.45657 C1687.73245,1928.84577 1653.46666,2164.81837 1563.32907,2230.9519 C1546.44937,2242.85253 1528.2193,2249.14287 1509.14524,2249.14287 Z" id="Path"></path>
                <path d="M207.382895,1702.39368 C206.53891,1702.39368 205.526128,1702.22367 204.682143,1701.88365 C200.124624,1700.35357 197.592669,1695.42331 199.111842,1690.66306 L271.356952,1472.54141 C272.369734,1470.33129 335.331009,1334.49404 401.161833,1238.0989 C459.059199,1153.26437 515.437391,1128.44304 531.641902,1122.83274 C537.380999,1107.36192 558.818216,1052.44898 585.150546,1010.11672 C614.352424,963.02421 725.252043,912.531515 743.313321,904.711097 C751.077982,893.660508 789.732491,839.427612 832.775723,790.805017 C864.340759,754.933102 971.695641,718.551159 1075.50579,683.52929 C1136.77909,662.788183 1194.67646,643.06713 1232.65578,625.046168 C1283.12608,601.074888 1369.38134,528.140995 1452.76705,457.417219 C1536.49035,386.523434 1622.91441,313.249523 1677.77343,285.708052 C1784.79072,231.815175 2244.7625,3.15296833 2249.48881,0.942850347 C2253.87754,-1.26726764 2259.11024,0.602832195 2261.3046,5.02306817 C2263.49896,9.44330414 2261.6422,14.7135855 2257.25348,16.7536944 C2252.69596,19.1338215 1792.72417,247.626019 1685.70689,301.518896 C1632.87343,328.210321 1547.12456,400.804197 1464.24524,470.847936 C1376.13322,545.48192 1292.74751,616.035687 1240.25164,640.857012 C1201.42834,659.217992 1143.02458,679.109054 1081.24488,700.02017 C984.355415,732.831922 874.468578,770.063909 846.110684,802.365634 C798.847529,855.918493 756.985876,916.101706 756.479485,916.781742 C755.466704,918.141814 754.285125,919.161869 752.765952,919.841905 C751.584373,920.351932 628.531371,973.904791 600.342275,1019.46722 C571.140396,1066.55974 547.171225,1132.35325 547.002428,1133.03329 C545.989646,1135.75343 543.795285,1137.79354 540.925736,1138.64359 C540.419345,1138.81359 479.14604,1155.64449 416.015968,1248.12943 C351.029128,1343.33451 288.743041,1477.81169 288.067853,1479.17176 L216.160338,1696.44336 C214.472368,1700.18356 210.927631,1702.39368 207.382895,1702.39368 Z" id="Path"></path>
                <path d="M538.224984,1138.81359 C534.680248,1138.81359 531.473105,1136.60348 530.122729,1133.2033 C528.434759,1128.61305 530.62912,1123.51278 535.186639,1121.81269 L856.238503,996.345989 C860.796022,994.645899 865.859931,996.856017 867.547901,1001.44626 C869.235871,1006.03651 867.04151,1011.13678 862.483992,1012.83687 L541.432127,1138.30357 C540.419345,1138.64359 539.237766,1138.81359 538.224984,1138.81359 Z" id="Path"></path>
                <path d="M748.883621,920.521942 C745.338884,920.521942 742.131742,918.311824 740.781366,914.911642 C739.093396,910.321397 741.287757,905.221125 745.845275,903.521034 L1066.89714,778.054336 C1071.45466,776.354245 1076.51857,778.564363 1078.20654,783.154608 C1079.89451,787.744853 1077.70015,792.845126 1073.14263,794.545216 L752.090764,920.011914 C751.077982,920.351932 750.0652,920.521942 748.883621,920.521942 Z" id="Path"></path>
                <path d="M676.469715,1478.66174 C675.963324,1478.66174 675.456933,1478.66174 674.950542,1478.49173 C670.224226,1477.64168 667.017084,1473.05144 667.692272,1468.29118 L692.843022,1318.34318 C693.687007,1313.58292 698.075729,1310.35275 702.970841,1311.03279 C707.697157,1311.88283 710.9043,1316.47308 710.229112,1321.23333 L685.078361,1471.18134 C684.234376,1475.60157 680.520842,1478.66174 676.469715,1478.66174 Z" id="Path"></path>
                <path d="M752.428358,1435.47943 C751.921967,1435.47943 751.584373,1435.47943 751.077982,1435.30942 C746.351666,1434.45938 742.975727,1430.03914 743.819712,1425.27889 L765.594523,1288.7616 C766.438508,1284.00135 770.827229,1280.60116 775.553545,1281.45121 C780.27986,1282.30125 783.6558,1286.72149 782.811815,1291.48175 L761.037004,1427.99903 C760.361816,1432.41927 756.648282,1435.47943 752.428358,1435.47943 Z" id="Path"></path>
                <path d="M947.557672,1346.22467 C947.051281,1346.22467 946.54489,1346.22467 946.207296,1346.05466 C941.480981,1345.20461 938.273838,1340.78438 938.949026,1335.85411 L956.672709,1227.89835 C957.516694,1223.1381 961.905416,1219.90792 966.800528,1220.58796 C971.526844,1221.43801 974.733987,1225.85824 974.058799,1230.7885 L956.335115,1339.08429 C955.49113,1343.1645 951.777597,1346.22467 947.557672,1346.22467 Z" id="Path"></path>
                <path d="M1142.68699,1318.6832 C1142.34939,1318.6832 1142.0118,1318.6832 1141.6742,1318.6832 C1136.77909,1318.17317 1133.40315,1313.75293 1133.90954,1308.99268 L1147.4133,1186.07612 C1147.91969,1181.14585 1152.13962,1177.57566 1157.03473,1178.2557 C1161.92984,1178.76573 1165.30578,1183.18596 1164.79939,1187.94622 L1151.29563,1310.86278 C1150.95804,1315.45302 1147.07571,1318.6832 1142.68699,1318.6832 Z" id="Path"></path>
                <path d="M1289.37157,1377.16632 C1289.03397,1377.16632 1288.86517,1377.16632 1288.52758,1377.16632 C1283.63247,1376.8263 1280.08773,1372.40607 1280.59412,1367.64581 L1285.48924,1310.52276 C1285.82683,1305.5925 1290.21555,1302.02231 1294.94187,1302.53233 C1299.83698,1302.87235 1303.38172,1307.29259 1302.87532,1312.05284 L1297.98021,1369.17589 C1297.81142,1373.59613 1293.92908,1377.16632 1289.37157,1377.16632 Z" id="Path"></path>
                <path d="M1241.93961,2407.42132 C1232.31819,2407.42132 1152.13962,2375.2896 6.00809187,1865.26238 C2.63215218,1863.73229 0.606588364,1860.33211 0.765598501,1856.59191 L4.99530996,1798.10879 C5.16410695,1794.87862 7.02087378,1792.15847 9.89042252,1790.7984 L1058.45729,1279.4111 C1060.65165,1278.39105 1063.18361,1278.22104 1065.37797,1279.07108 L1331.06442,1379.37644 C1335.62194,1381.07653 1337.8163,1386.1768 1336.12833,1390.76705 C1334.44036,1395.35729 1329.37645,1397.56741 1324.81893,1395.86732 L1062.67722,1296.92204 L22.0438054,1804.39913 L18.6678657,1851.66165 C424.118223,2032.04128 1179.31593,2367.12917 1238.05728,2389.57037 C1258.48172,2375.2896 1382.5475,2284.16474 1466.10201,2222.62145 C1469.98434,2219.7313 1475.55464,2220.58134 1478.42419,2224.49155 C1481.29374,2228.40176 1480.44975,2234.01206 1476.56742,2236.90222 C1408.37344,2287.2249 1249.02909,2404.36116 1243.28999,2407.25131 C1242.9524,2407.25131 1242.6148,2407.42132 1241.93961,2407.42132 Z" id="Path"></path>
                <path d="M1628.8223,2127.24636 C1626.12155,2127.24636 1623.5896,2126.0563 1621.73283,2123.67617 C1618.86328,2119.76596 1619.53847,2114.32567 1623.4208,2111.26551 L2124.91664,1732.31528 L2124.91664,1677.91237 L1760.31515,1545.81532 C1755.75763,1544.11523 1753.39448,1539.18497 1755.08245,1534.59472 C1756.77042,1530.00448 1761.66553,1527.62435 1766.22305,1529.32444 L2136.56363,1663.63161 C2140.10837,1664.82168 2142.30273,1668.22186 2142.30273,1671.96206 L2142.30273,1736.90552 C2142.30273,1739.62567 2140.95235,1742.34581 2138.75799,1744.0459 L1633.71741,2125.54627 C1632.53584,2126.73633 1630.67907,2127.24636 1628.8223,2127.24636 Z" id="Path"></path>
                <path d="M1237.0445,2354.88851 C1235.86292,2354.88851 1234.68134,2354.71851 1233.49976,2354.20848 L10.2280165,1806.77925 C5.83929489,1804.73914 3.81373107,1799.63887 5.83929489,1795.04863 C7.8648587,1790.62839 12.9287682,1788.58828 17.4862868,1790.62839 L1236.20052,2336.01751 L1435.71855,2190.82976 C1439.60088,2187.9396 1445.17118,2188.78965 1447.87193,2192.86987 C1450.74148,2196.78007 1449.8975,2202.39037 1445.84637,2205.11052 L1242.27721,2353.18842 C1240.75803,2354.37849 1238.90127,2354.88851 1237.0445,2354.88851 Z" id="Path"></path>
                <path d="M1649.41553,2055.84255 C1646.71478,2055.84255 1644.18283,2054.65249 1642.49486,2052.27236 C1639.62531,2048.36215 1640.3005,2042.92186 1644.18283,2039.8617 L2124.57905,1675.19223 C2128.46138,1672.30207 2133.86288,1672.98211 2136.90123,1676.89232 C2139.77077,1680.80253 2139.09559,1686.24282 2135.21326,1689.30298 L1654.81704,2053.97245 C1653.12907,2055.33252 1651.2723,2055.84255 1649.41553,2055.84255 Z" id="Path"></path>
                <path d="M1243.79638,3131.48997 C1242.446,3131.48997 1241.26443,3131.14995 1239.91405,3130.63993 L18.3302717,2533.39804 C15.460723,2532.03797 13.424535,2528.97781 13.424535,2525.74764 C13.2663622,2522.51746 15.123129,2519.4573 17.9926778,2517.75721 L671.912196,2150.19759 C676.132121,2147.81746 681.533624,2149.34754 683.896782,2153.59777 C686.25994,2157.848 684.740767,2163.28829 680.520842,2165.66841 L41.2866617,2524.89759 L1242.7836,3112.27895 L2042.88131,2469.13461 L1513.70276,2248.97286 C1509.31404,2247.10276 1507.11968,2242.00249 1508.97644,2237.41224 C1510.83321,2232.822 1515.89712,2230.78189 1520.45464,2232.65199 L2063.47454,2458.59405 C2066.34409,2459.78411 2068.36965,2462.33425 2068.87604,2465.56442 C2069.38243,2468.62459 2068.03206,2471.68475 2065.6689,2473.72486 L1249.53548,3129.78988 C1247.67871,3130.80994 1245.65315,3131.48997 1243.79638,3131.48997 Z" id="Path"></path>
                <path d="M77.4092164,2558.7294 C74.3708706,2558.7294 71.3325249,2557.02931 69.8133521,2554.30916 C67.4501943,2550.05893 68.9693671,2544.61864 73.1892917,2542.23852 L723.057683,2173.65884 C727.277607,2171.27871 732.679111,2172.80879 735.042268,2177.05902 C737.405426,2181.30925 735.886253,2186.74954 731.666329,2189.12967 L81.797938,2557.70934 C80.4475621,2558.38938 78.9283892,2558.7294 77.4092164,2558.7294 Z" id="Path"></path>
                <path d="M2015.3674,2502.96642 C2014.18582,2502.96642 2013.17304,2502.79641 2011.99146,2502.28638 L1442.80802,2263.76365 C1438.4193,2261.89355 1436.22494,2256.79328 1438.08171,2252.20303 C1439.93848,2247.7828 1445.00239,2245.57268 1449.5599,2247.44278 L2018.74334,2485.96551 C2023.13206,2487.83561 2025.32642,2492.93588 2023.46965,2497.52613 C2021.95048,2500.92631 2018.74334,2502.96642 2015.3674,2502.96642 Z" id="Path"></path>
            </g>
        </g>
    </g>
</svg>