<?xml version="1.0" encoding="UTF-8"?>
<svg width="450px" height="325px" viewBox="0 0 450 325" version="1.1" xmlns="http://www.w3.org/2000/svg" xmlns:xlink="http://www.w3.org/1999/xlink">
    <!-- Generator: Sketch 55.2 (78181) - https://sketchapp.com -->
    <title>undraw_unlock_24mb</title>
    <desc>Created with Sketch.</desc>
    <g id="Login" stroke="none" stroke-width="1" fill="none" fill-rule="evenodd">
        <g id="Desktop-HD" transform="translate(-783.000000, -248.000000)" fill-rule="nonzero">
            <g id="body" transform="translate(208.000000, 248.000000)">
                <g id="undraw_unlock_24mb" transform="translate(575.000000, 0.000000)">
                    <path d="M450,324.074074 C426.812751,320.681432 404.51341,317.756805 383.101978,315.300192 L391.568542,301.613428 C388.714395,300.771131 376.173083,308.573594 376.173083,308.573594 L387.28727,268.782013 C372.931876,270.163569 365.627251,310.811877 365.627251,310.811877 L349.590801,296.983442 L357.353287,312.482784 C291.821505,305.725502 235.225652,303.070796 187.621605,302.764595 L194.868147,291.050158 C192.013995,290.207857 179.472688,298.010324 179.472688,298.010324 L190.586875,258.218743 C176.231477,259.600294 168.926856,300.248607 168.926856,300.248607 L152.890388,286.420172 L161.112092,302.836516 C121.203812,303.319746 88.6589214,305.447651 63.5389357,307.928809 C70.869433,289.661546 95.7650801,272.370731 95.7650801,272.370731 C76.7536774,277.011688 66.7803734,284.889723 61.5685392,292.253208 C61.1701508,269.654781 63.8502035,227.77213 83.7617782,181.481481 C83.7617782,181.481481 44.4568831,252.814832 49.4638095,300.841798 L50.0622757,309.36866 C16.7488131,313.204105 0,317.277259 0,317.277259 L450,324.074074 Z" id="Path" fill="#3F3D56"></path>
                    <path d="M238.888889,12.9431844 L238.888889,300.954572 C238.881721,308.098501 233.060884,313.888889 225.881533,313.888889 L108.377734,313.888889 C104.927666,313.894885 101.617035,312.534385 99.176628,310.107684 C96.7362208,307.680984 95.3667016,304.387621 95.3703704,300.954572 L95.3703704,12.9431844 C95.3703704,9.51034756 96.7403973,6.21802556 99.1798144,3.79064336 C101.619232,1.36326117 104.927877,0 108.377734,0 L125.962,0 L125.962,2.24384125 C125.96126,8.12940976 130.754988,12.9014776 136.669737,12.9031951 L196.433022,12.9031951 C198.719301,12.9080511 200.946144,12.1787816 202.782648,10.8237547 C203.15389,10.5550399 203.506,10.2610833 203.836453,9.94399143 C205.950445,7.93537883 207.1447,5.15236018 207.140759,2.24384125 L207.140759,0 L225.881533,0 C229.331622,0 232.640708,1.36226407 235.080289,3.78980991 C237.519871,6.21735574 238.888889,9.51011629 238.888889,12.9431844 Z" id="Path" fill="#3F3D56"></path>
                    <circle id="Oval" fill="#F2F2F2" cx="129.166667" cy="47.6851852" r="3.24074074"></circle>
                    <path d="M204.730627,10.1851852 C204.408603,10.504046 204.065476,10.7996425 203.703704,11.0698562 C211.24617,24.6986892 224.009881,34.4543818 238.888889,37.962963 L238.888889,36.5689358 C224.412309,33.062353 212.025573,23.4948711 204.730627,10.1851852 L204.730627,10.1851852 Z" id="Path" fill="#000000"></path>
                    <path d="M176.480017,12.962963 L175,12.962963 C185.692404,40.0856301 210.027968,59.4835434 238.888889,63.8888889 L238.888889,62.4924239 C210.787938,58.1356776 187.069131,39.3117564 176.480017,12.962963 Z" id="Path" fill="#000000"></path>
                    <path d="M150.479863,12.962963 L149.074074,12.962963 C160.83199,53.6679913 196.310376,83.9682571 238.888889,88.8888889 L238.888889,87.5356042 C197.048856,82.6371929 162.179941,52.9136926 150.479863,12.962963 Z" id="Path" fill="#000000"></path>
                    <polygon id="Path" fill="#F2F2F2" points="117.592593 71.7180556 117.170833 71.7180556 117.170833 71.2962963 117.088657 71.2962963 117.088657 71.7180556 116.666667 71.7180556 116.666667 71.800463 117.088657 71.800463 117.088657 72.2222222 117.170833 72.2222222 117.170833 71.800463 117.592593 71.800463"></polygon>
                    <polygon id="Path" fill="#F2F2F2" points="173.148148 30.9773148 172.726389 30.9773148 172.726389 30.5555556 172.644213 30.5555556 172.644213 30.9773148 172.222222 30.9773148 172.222222 31.0597222 172.644213 31.0597222 172.644213 31.4814815 172.726389 31.4814815 172.726389 31.0597222 173.148148 31.0597222"></polygon>
                    <polygon id="Path" fill="#F2F2F2" points="125.925926 103.199537 125.504167 103.199537 125.504167 102.777778 125.421991 102.777778 125.421991 103.199537 125 103.199537 125 103.281944 125.421991 103.281944 125.421991 103.703704 125.504167 103.703704 125.504167 103.281944 125.925926 103.281944"></polygon>
                    <polygon id="Path" fill="#F2F2F2" points="163.888889 79.125463 163.46713 79.125463 163.46713 78.7037037 163.384954 78.7037037 163.384954 79.125463 162.962963 79.125463 162.962963 79.2078704 163.384954 79.2078704 163.384954 79.6296296 163.46713 79.6296296 163.46713 79.2078704 163.888889 79.2078704"></polygon>
                    <polygon id="Path" fill="#F2F2F2" points="217.592593 94.8662037 217.170833 94.8662037 217.170833 94.4444444 217.088657 94.4444444 217.088657 94.8662037 216.666667 94.8662037 216.666667 94.9486111 217.088657 94.9486111 217.088657 95.3703704 217.170833 95.3703704 217.170833 94.9486111 217.592593 94.9486111"></polygon>
                    <circle id="Oval" fill="#FF6584" cx="207.407407" cy="55.5555556" r="1.85185185"></circle>
                    <path d="M144.047952,98.1481481 L143.518519,98.3088081 C143.684112,100.392797 143.814722,102.522689 143.910346,104.62963 L144.444444,104.537824 C144.348813,102.403374 144.215871,100.255121 144.047952,98.1481481 Z" id="Path" fill="#E6E6E6"></path>
                    <path d="M141.798026,85.1851852 L140.740741,85.4938491 C141.379918,87.5207444 141.951813,89.5983121 142.437204,91.6666667 L143.518519,91.4317311 C143.023512,89.3403298 142.442024,87.2397292 141.798026,85.1851852 Z" id="Path" fill="#E6E6E6"></path>
                    <path d="M137.14321,74.0740741 L136.111111,74.5265993 C137.059259,76.5016835 137.948148,78.5286195 138.753086,80.5555556 L139.814815,80.1737374 C139.000005,78.1232182 138.106178,76.068004 137.14321,74.0740741 Z" id="Path" fill="#E6E6E6"></path>
                    <path d="M131.348622,62.037037 L130.555556,62.642829 C131.565285,64.553753 132.534135,66.5336879 133.433489,68.5185185 L134.259259,67.9767533 C133.351737,65.9673365 132.370616,63.9676812 131.348622,62.037037 Z" id="Path" fill="#E6E6E6"></path>
                    <path d="M123.922704,53.7037037 L123.148148,54.2622582 C124.467106,55.574299 125.750655,56.9463188 126.963388,58.3333333 L127.777778,57.8197631 C126.556171,56.4177313 125.259348,55.0307093 123.922704,53.7037037 Z" id="Path" fill="#E6E6E6"></path>
                    <path d="M115.421784,43.5185185 L114.814815,44.2191085 C116.179504,45.4768928 117.516424,46.8002294 118.78987,48.1481481 L119.444444,47.4885284 C118.155134,46.1241929 116.802334,44.7885611 115.421784,43.5185185 Z" id="Path" fill="#E6E6E6"></path>
                    <path d="M105.101742,36.1111111 L104.62963,36.9872362 C106.027668,38.1723108 107.411067,39.4357754 108.73957,40.7407407 L109.259259,39.9060886 C107.912454,38.5873128 106.514416,37.3100561 105.101742,36.1111111 Z" id="Path" fill="#E6E6E6"></path>
                    <path d="M96.2962963,30.5555556 L96.2962963,31.6666667 C97.3718555,32.2008547 98.4384141,32.7606838 99.4824715,33.3333333 L100,32.482906 C98.7849182,31.8162137 97.5503503,31.1737635 96.2962963,30.5555556 Z" id="Path" fill="#E6E6E6"></path>
                    <path d="M143.518519,194.249098 C143.623364,193.092948 143.719286,191.912393 143.803752,190.740741 L144.444444,190.897033 C144.359025,192.081916 144.262018,193.275104 144.156079,194.444444 L143.518519,194.249098 Z" id="Path" fill="#E6E6E6"></path>
                    <path d="M140.740741,205.240122 L141.774455,205.555556 C142.423033,203.507159 143.010009,201.408795 143.518519,199.31819 L142.465108,199.074074 C141.961284,201.142098 141.384577,203.214293 140.740741,205.240122 Z" id="Path" fill="#E6E6E6"></path>
                    <path d="M136.111111,217.130615 L137.126373,217.592593 C138.091702,215.604955 138.995228,213.556839 139.814815,211.506527 L138.770608,211.111111 C137.9607,213.139231 137.06679,215.165159 136.111111,217.130615 Z" id="Path" fill="#E6E6E6"></path>
                    <path d="M130.555556,228.085944 L131.333283,228.703704 C132.359055,226.779457 133.343114,224.784358 134.259259,222.777262 L133.450463,222.222222 C132.546277,224.207132 131.570171,226.179043 130.555556,228.085944 Z" id="Path" fill="#E6E6E6"></path>
                    <path d="M123.148148,236.468098 L123.910812,237.037037 C125.249643,235.7076 126.547579,234.324807 127.777778,232.926235 L126.971938,232.407407 C125.758999,233.789775 124.474022,235.155605 123.148148,236.468098 Z" id="Path" fill="#E6E6E6"></path>
                    <path d="M114.814815,246.509029 L115.411216,247.222222 C116.796089,245.956631 118.150339,244.621304 119.444444,243.264689 L118.803849,242.592593 C117.524474,243.93551 116.18187,245.252275 114.814815,246.509029 Z" id="Path" fill="#E6E6E6"></path>
                    <path d="M105.555556,252.987515 L106.018293,253.703704 C107.432742,252.749185 108.837483,251.731821 110.185185,250.683533 L109.678714,250 C108.343918,251.039595 106.956387,252.045361 105.555556,252.987515 Z" id="Path" fill="#E6E6E6"></path>
                    <path d="M100,257.3293 C98.7872443,257.998182 97.5483139,258.645762 96.2962963,259.259259 L96.2962963,258.160077 C97.3781791,257.623267 98.4513371,257.056635 99.5026829,256.481481 L100,257.3293 Z" id="Path" fill="#E6E6E6"></path>
                    <path d="M143.518519,110.201917 L144.430864,110.185185 C144.447625,111.114748 144.448871,112.049236 144.434602,112.962963 L143.522333,112.94859 C143.536205,112.045259 143.53501,111.121131 143.518519,110.201917 Z" id="Path" fill="#E6E6E6"></path>
                    <path d="M100.925926,134.259259 L205.043795,134.259259 C221.17905,134.259259 234.259259,147.438561 234.259259,163.696053 L234.259259,167.592593 L130.141395,167.592593 C114.006139,167.592593 100.925926,154.413291 100.925926,138.155798 L100.925926,134.259259 L100.925926,134.259259 Z" id="Path" fill="#FFFFFF"></path>
                    <path d="M170.397106,313.888889 C170.291726,313.722782 167.806988,309.720646 166.945562,301.410118 C166.15543,293.785646 166.6635,280.934004 173.572864,263.00702 C186.662455,229.045546 170.556297,201.64356 170.391724,201.370609 L171.186337,200.925926 C171.228041,200.995137 175.384064,207.981569 177.839203,219.106392 C181.083212,233.855567 179.901949,249.191148 174.433854,263.315873 C161.366699,297.219365 171.081413,313.269014 171.180956,313.427334 L170.397106,313.888889 Z" id="Path" fill="#F2F2F2"></path>
                    <circle id="Oval" fill="#000000" cx="164.814815" cy="193.518519" r="5.55555556"></circle>
                    <circle id="Oval" fill="#F2F2F2" cx="183.333333" cy="213.888889" r="5.55555556"></circle>
                    <circle id="Oval" fill="#000000" cx="171.296296" cy="229.62963" r="5.55555556"></circle>
                    <circle id="Oval" fill="#000000" cx="186.111111" cy="240.740741" r="5.55555556"></circle>
                    <circle id="Oval" fill="#F2F2F2" cx="167.592593" cy="260.185185" r="5.55555556"></circle>
                    <path d="M174.108368,313.888889 C174.108368,313.888889 168.106996,299.603175 186.111111,288.888889 L174.108368,313.888889 Z" id="Path" fill="#F2F2F2"></path>
                    <path d="M166.666667,313.888889 C166.666667,313.888889 164.018085,298.946827 143.518519,299.074893 L166.666667,313.888889 Z" id="Path" fill="#F2F2F2"></path>
                    <circle id="Oval" fill="#000000" opacity="0.2" cx="143.981481" cy="151.388889" r="35.6481481"></circle>
                    <circle id="Oval" fill="#000000" opacity="0.2" cx="142.592593" cy="150.925926" r="25"></circle>
                    <circle id="Oval" fill="#000000" cx="143.518519" cy="150.925926" r="16.6666667"></circle>
                    <path d="M146.296296,147.423285 C146.296712,146.037836 145.257186,144.835164 143.788466,144.52187 C142.319745,144.208576 140.809916,144.867443 140.146042,146.111369 C139.482168,147.355295 139.839667,148.855594 141.008498,149.7308 L139.815017,157.407407 L146.296296,157.407407 L145.102809,149.7308 C145.858607,149.16609 146.297057,148.318381 146.296296,147.423285 Z" id="Path" fill="#FFFFFF"></path>
                    <path d="M310.412774,23.6662382 C310.412774,23.6662382 300.491474,14.7254899 287.149069,31.5753659 C273.806663,48.425242 252.937736,56.6782477 248.148148,63.2118722 C248.148148,63.2118722 267.990722,54.958871 274.83299,51.5201219 C281.675257,48.0813729 281.333141,48.76912 281.333141,48.76912 C281.333141,48.76912 272.096082,55.3027445 270.385514,61.8363735 C268.674946,68.3700025 270.043416,73.8719973 266.964383,80.4056263 C263.885349,86.9392553 325.807895,84.8760273 325.807895,84.8760273 C325.807895,84.8760273 331.965934,74.2159156 330.255366,63.211899 C328.544798,52.2078825 329.571121,25.0417504 310.412774,23.6662382 Z" id="Path" fill="#2F2E41"></path>
                    <path d="M290.426291,51.8518519 C290.426291,51.8518519 292.58739,66.9753107 283.325545,70.3703724 C274.0637,73.765434 277.459723,78.3950619 277.459723,78.3950619 L291.352492,85.1851852 L306.171459,80.5555573 L311.111111,73.148142 C311.111111,73.148142 303.084177,71.2962926 305.245289,65.7407266 C307.406401,60.1851607 308.023843,58.3333113 308.023843,58.3333113 L290.426291,51.8518519 Z" id="Path" fill="#FFB9B9"></path>
                    <path d="M290.426291,51.8518519 C290.426291,51.8518519 292.58739,66.9753107 283.325545,70.3703724 C274.0637,73.765434 277.459723,78.3950619 277.459723,78.3950619 L291.352492,85.1851852 L306.171459,80.5555573 L311.111111,73.148142 C311.111111,73.148142 303.084177,71.2962926 305.245289,65.7407266 C307.406401,60.1851607 308.023843,58.3333113 308.023843,58.3333113 L290.426291,51.8518519 Z" id="Path" fill="#000000" opacity="0.1"></path>
                    <path d="M330.496675,95.3703704 C330.496675,95.3703704 328.293539,123.75362 328.922987,124.987677 C329.552435,126.221734 328.922987,169.105119 328.922987,169.105119 C328.922987,169.105119 333.329255,192.243636 327.664055,193.477688 C321.998855,194.711741 323.257783,167.562548 323.257783,167.562548 L317.592593,131.774975 L318.222059,96.2958964 L330.496675,95.3703704 Z" id="Path" fill="#FFB9B9"></path>
                    <path d="M330.496675,95.3703704 C330.496675,95.3703704 328.293539,123.75362 328.922987,124.987677 C329.552435,126.221734 328.922987,169.105119 328.922987,169.105119 C328.922987,169.105119 333.329255,192.243636 327.664055,193.477688 C321.998855,194.711741 323.257783,167.562548 323.257783,167.562548 L317.592593,131.774975 L318.222059,96.2958964 L330.496675,95.3703704 Z" id="Path" fill="#000000" opacity="0.1"></path>
                    <path d="M269.223877,180.555556 C269.223877,180.555556 258.955014,219.331644 259.266191,238.254369 C259.577368,257.177094 263.622693,283.54484 263.622693,283.54484 C263.622693,283.54484 264.245048,295.022558 263.311516,296.263396 C262.377985,297.504233 267.979146,302.777778 267.979146,302.777778 L273.891507,299.365483 L276.069752,296.883812 L276.069752,294.712368 C276.069752,294.712368 272.646799,284.165274 275.447397,275.789638 C278.247996,267.414002 279.803882,246.319815 277.003305,239.805433 L296.296296,182.727036 L269.223877,180.555556 Z" id="Path" fill="#FFB9B9"></path>
                    <path d="M269.19033,296.99608 C269.19033,296.99608 265.504312,292.273279 263.046966,293.847566 C260.589619,295.421852 256.596433,306.126843 256.596433,306.126843 C256.596433,306.126843 242.773866,319.665528 252.603248,320.295238 C262.43263,320.924948 266.732988,317.461563 267.961659,314.942736 C269.19033,312.423909 280.555556,305.811963 280.555556,305.811963 C280.555556,305.811963 279.326884,293.847538 277.483873,293.532685 C275.640862,293.217833 272.876352,298.255478 272.876352,298.255478 L269.19033,296.99608 Z" id="Path" fill="#2F2E41"></path>
                    <path d="M303.353109,183.266233 L303.353109,221.260508 C303.388604,225.870646 303.694779,230.474692 304.270044,235.048755 C305.186983,241.789675 299.074074,292.040167 299.074074,292.040167 L299.685364,300.925926 L307.326499,300.313111 L308.243438,292.652977 L319.246672,258.948382 C319.246672,258.948382 322.914417,238.419215 321.080547,230.759081 C319.246676,223.098947 330.555556,174.074074 330.555556,174.074074 L303.353109,183.266233 Z" id="Path" fill="#FFB9B9"></path>
                    <path d="M296.944968,299.830905 L299.202522,299.334652 C299.202522,299.334652 300.907623,295.516075 303.041355,296.44068 C304.542865,297.140882 305.965358,298.00268 307.28419,299.011142 L308.223286,300.75548 C308.223286,300.75548 310.357022,305.378516 313.100393,308.460539 C315.843763,311.542562 318.891948,318.323012 314.319673,318.939416 C309.747398,319.555819 303.650993,319.864021 301.822079,318.323012 C299.993166,316.782003 301.212442,314.316383 299.383524,313.699975 C297.554606,313.083567 296.030511,311.23436 296.33533,310.617952 C296.640149,310.001544 296.944968,299.830905 296.944968,299.830905 Z" id="Path" fill="#2F2E41"></path>
                    <circle id="Oval" fill="#FFB9B9" cx="303.703704" cy="48.1481481" r="13.8888889"></circle>
                    <path d="M276.851852,72.712576 L280.928705,71.2962963 C280.928705,71.2962963 279.320989,73.9410291 287.962965,75.4766232 C296.604941,77.0122173 305.554694,77.5558416 309.567471,72.5237387 C309.567471,72.5237387 311.11111,71.7912461 313.271605,73.9410513 C315.432101,76.0908564 316.666667,75.4766454 316.666667,75.4766454 L315.123437,83.4616328 L312.037017,98.203159 L308.024682,109.259259 L296.604927,106.80234 L284.259266,97.8959914 L279.629621,85.9185169 L279.629621,74.8623811 L276.851852,72.712576 Z" id="Path" fill="#000000"></path>
                    <path d="M315.366978,76.7716606 L318.467555,74.6325269 C318.467555,74.6325269 329.009515,76.4660707 329.62963,81.3555137 L321.568132,96.6350313 C323.212356,100.886568 323.101049,105.603803 321.258075,109.775411 C318.157498,116.803992 318.467555,118.331941 318.467555,118.331941 L316.29715,127.499652 L276.919825,130.555556 C276.919825,130.555556 275.369517,126.888472 274.74942,126.277292 C274.129324,125.666113 274.129306,123.526979 274.74942,123.526979 C275.369535,123.526979 274.74942,122.610205 274.129306,121.693435 C273.509191,120.776665 273.199134,120.471075 274.129306,119.248711 C275.059477,118.026347 272.578997,107.025097 272.578997,107.025097 L272.578997,95.1070818 L262.037037,81.3555137 C262.037037,81.3555137 265.757729,75.8548865 267.618077,75.2437067 C269.478424,74.6325269 278.327997,72.2222222 278.327997,72.2222222 L280.330442,75.1281913 L283.120961,97.2461935 L287.15171,110.692172 L304.123204,107.850118 L310.716102,96.9406036 L315.056912,84.1058097 L315.366978,76.7716606 Z" id="Path" fill="#000000"></path>
                    <path d="M326.688725,79.6296296 L329.004292,81.5444913 C329.004292,81.5444913 331.030417,99.4165617 330.451542,100.693136 C329.872667,101.969711 319.742031,103.24629 319.452585,102.608003 C319.163139,101.969715 326.688725,79.6296296 326.688725,79.6296296 Z" id="Path" fill="#000000"></path>
                    <path d="M275.076683,70.684216 L278.190154,91.1401052 C278.190154,91.1401052 275.38803,121.514006 276.010725,127.712761 L276.633419,129.572385 C276.633419,129.572385 275.38803,128.95251 275.076661,130.192264 C274.765291,131.432018 275.076661,135.461203 275.076661,135.461203 C275.076661,135.461203 273.208574,137.320831 272.58588,147.548776 C271.963186,157.77672 264.490844,182.261803 267.292972,183.191633 C270.095099,184.121463 286.907862,188.770514 295.93694,187.840702 C304.966017,186.91089 337.346154,176.063066 337.034807,173.273626 C336.72346,170.484186 321.156086,131.122094 321.156086,131.122094 C321.156086,131.122094 318.354007,126.473007 318.354007,125.853133 C318.354007,125.233258 322.090176,122.753755 321.156135,120.274252 C320.222094,117.794749 315.240546,91.7599843 315.240546,91.7599843 L318.665368,73.163719 L313.995131,71.9239474 L310.570309,89.900338 C310.570309,89.900338 297.182373,96.4090305 283.171729,90.5202127 L280.058254,69.4444444 L275.076683,70.684216 Z" id="Path" fill="#2F2E41"></path>
                    <path d="M290.740741,39.5109005 C290.740741,39.5109005 313.724489,55.2637078 319.936312,48.1594973 C326.148135,41.0552868 309.065619,34.877724 309.065619,34.877724 L294.778429,33.3333333 L290.740741,39.5109005 Z" id="Path" fill="#2F2E41"></path>
                    <path d="M255.001772,206.197642 C259.825397,209.857979 266.566539,209.291053 270.736477,204.874364 C274.906416,200.457675 275.204148,193.56921 271.431423,188.795787 C267.658699,184.022365 260.992591,182.853271 255.871857,186.066971 C250.751123,189.280671 248.773411,195.874503 251.255617,201.457837 L220.014971,227.973619 L215.855317,222.941073 L213.986422,224.215303 L211.906595,221.699034 L213.615506,220.231242 L211.53568,217.714974 L208.877373,219.998197 L210.157268,221.546665 L207.309079,223.993004 L206.029188,222.444537 L201.851852,226.032464 L203.771691,228.355165 L205.290716,227.050462 L207.370543,229.566734 L205.471753,231.197625 L209.31143,235.843049 L204.754334,239.757149 L209.393947,245.37037 L255.001772,206.197642 Z M262.801956,188.410536 C265.985874,188.687841 268.692415,190.892963 269.659521,193.997655 C270.626627,197.102347 269.663844,200.495194 267.220116,202.594115 C264.776388,204.693036 261.332966,205.084684 258.495513,203.586436 C255.65806,202.088187 253.985364,198.995095 254.257401,195.749465 C254.628864,191.317629 258.454385,188.031876 262.801956,188.410518 L262.801956,188.410536 Z" id="Shape" fill="#000000"></path>
                    <path d="M259.318139,99.0740741 C259.318139,99.0740741 261.521274,127.457323 260.891826,128.691376 C260.262379,129.925428 260.891826,172.808818 260.891826,172.808818 C260.891826,172.808818 256.485562,195.947335 262.150758,197.181392 C267.815953,198.415449 266.557027,171.266248 266.557027,171.266248 L272.222222,135.478674 L271.592757,99.9995957 L259.318139,99.0740741 Z" id="Path" fill="#FFB9B9"></path>
                    <path d="M264.559249,81.4814815 L262.028157,82.3888876 C262.028157,82.3888876 257.282362,101.444442 258.547906,101.444442 C259.81345,101.444442 275,103.259259 275,102.654321 C275,102.049384 272.152522,87.2283956 272.152522,87.2283956 L264.559249,81.4814815 Z" id="Path" fill="#000000"></path>
                </g>
            </g>
        </g>
    </g>
</svg>