<?xml version="1.0" encoding="UTF-8"?>
<svg width="390px" height="326px" viewBox="0 0 390 326" version="1.1" xmlns="http://www.w3.org/2000/svg" xmlns:xlink="http://www.w3.org/1999/xlink">
    <!-- Generator: Sketch 55.2 (78181) - https://sketchapp.com -->
    <title>author-empty-illustration</title>
    <desc>Created with Sketch.</desc>
    <g id="Page-1" stroke="none" stroke-width="1" fill="none" fill-rule="evenodd">
        <g id="Desktop" transform="translate(-178.000000, -326.000000)" fill-rule="nonzero">
            <g id="author-empty-illustration" transform="translate(178.000000, 326.000000)">
                <path d="M317,308 L80,308 L80.1068894,282.907611 C80.3773529,219.414975 131.127096,167.097376 194.700543,166.017552 C195.387351,166.005883 196.075296,165.999966 196.764378,165.999966 L196.764574,165.999966 C211.069782,165.989304 225.261448,168.535326 238.668358,173.517683 C283.651447,190.246606 313.844216,232.749519 315.852661,280.64132 L317,308 Z" id="Path" fill="#000000"></path>
                <rect id="Rectangle" fill="#2F2E41" x="0" y="308" width="390" height="1"></rect>
                <polygon id="Path" fill="#2F2E41" points="195 195.057815 205.54143 202.66144 216.083354 292 241 292 232.374969 190.305733 197.874846 177"></polygon>
                <path d="M150.316076,166.943997 C150.316076,166.943997 147.47139,199.311999 158.850135,200.264001 C170.228879,201.216002 213.847401,190.743999 213.847401,190.743999 L234.708433,265 L266,248.816001 C266,248.816001 247.035428,165.039999 235.656683,160.28 C224.277939,155.520002 186.348789,146 186.348789,146 L158.850154,150.759998 L150.316076,166.943997 Z" id="Path" fill="#2F2E41"></path>
                <path d="M219.176474,291 C219.176474,291 213.52941,312.532494 217.294118,314.404888 C219.558476,315.530349 221.75797,316.78055 223.882355,318.149667 L223.882355,314.404888 C223.882355,314.404888 228.588235,319.085864 228.588235,322.830648 C228.588235,326.575431 254,327.511623 254,322.830648 C254,318.149672 253.058827,312.532494 248.352941,309.723917 C243.647056,306.915341 238,291 238,291 L219.176474,291 Z" id="Path" fill="#2F2E41"></path>
                <polygon id="Path" fill="#2F2E41" points="246 251.550012 247.92281 269.600147 254.653884 281 271 262.949866 258.5 243"></polygon>
                <path d="M262.00237,268.677213 C262.00237,268.677213 265.454974,256.873404 268.885739,258.087645 C272.316504,259.301885 285.443574,271.48981 285.443574,271.48981 L294.820068,277.115006 C294.820068,277.115006 313.573033,278.990074 307.947138,284.61527 C302.321243,290.240465 281.692998,297.740719 272.316504,293.990592 C262.94001,290.240465 261.064725,289.302931 261.064725,289.302931 L258.25178,291.177995 L247,288.365397 L248.875295,268.677213 C248.875295,268.677213 251.688235,277.115006 262.00237,268.677213 Z" id="Path" fill="#2F2E41"></path>
                <circle id="Oval" fill="#9F616A" cx="183" cy="26" r="22"></circle>
                <path d="M168.811654,39.2208968 C168.811654,39.2208968 170.708133,59.2285754 165.018706,59.2285754 C159.329278,59.2285754 165.96694,84 181.138764,84 C196.310587,84 202,54.4648538 202,54.4648538 C202,54.4648538 191.569379,50.6538658 193.465859,38.2681633 C195.362338,25.8824607 168.811654,39.2208968 168.811654,39.2208968 Z" id="Path" fill="#9F616A"></path>
                <path d="M167.34277,56.917575 L159.357562,60.3559932 L137.685843,69.5703871 C135.891401,70.333346 134.809917,72.1914564 135.027744,74.1372999 L143.209503,147.225509 C143.209503,147.225509 134.660519,165.363097 147.958941,166.317708 L149.858689,173 L165.056885,154.862383 L222.050111,152.953164 L223,60.3559883 L196.922565,50 C196.922565,50 193.375831,69.7075162 167.34277,56.917575 Z" id="Path" fill="#3F3D56"></path>
                <path d="M140.781127,73.118267 L137.266105,72.1117547 C136.468893,71.8834806 135.612302,72.0083626 134.913023,72.4548091 C134.213745,72.9012556 133.738761,73.6265035 133.608228,74.4470859 L124.280534,133.086667 C123.552995,137.429209 124.249521,141.891105 126.26569,145.803443 C129.147788,151.272477 135.133522,156.232521 147.439393,150.33409 L156,88.3707612 L140.781127,73.118267 Z" id="Path" fill="#3F3D56"></path>
                <path d="M213,59 L224.368417,60.9062057 L255.631583,104.748977 L258.473668,112.37378 L276.473687,106.655158 C276.473687,106.655158 275.526318,115.233091 285,114.27999 C285,114.27999 273.631583,145.732431 249.947379,136.201373 C226.263176,126.670315 218.684213,98.0772247 218.684213,98.0772247 L213,59 Z" id="Path" fill="#3F3D56"></path>
                <polygon id="Path" fill="#CCCCCC" points="226 78.25037 182.914611 61 181 66.7501233 201.106121 84"></polygon>
                <path d="M169.531984,27.6799123 C170.347936,27.4668283 170.467802,26.4072546 170.495148,25.5816652 C170.641605,21.1605535 173.363515,16.6239972 177.690402,15.3369433 C179.350712,14.8916219 181.089083,14.7980605 182.789326,15.0625125 C185.216322,15.3786881 187.559717,16.1433478 189.694658,17.3157514 C190.821593,17.9354331 191.926996,18.6817736 193.205253,18.8710656 C194.049455,18.9960803 197.704741,20.0355516 198.545359,20.181839 C200.39354,20.5034574 202.111145,22.1207905 203.884634,21.5189335 C205.58134,20.9431463 205.956929,18.7944522 205.997941,17.0383514 C206.091386,13.0375904 202.986164,7.50038438 200.251068,4.5241231 C198.175505,2.26555035 195.050294,1.22295993 191.99529,0.680834571 C188.426635,0.119985175 184.81012,-0.0951997067 181.198272,0.0384053629 C176.309188,0.123689268 171.284589,0.492780562 166.875995,2.5618534 C162.4674,4.63092625 158.764305,8.74887769 158.552976,13.5270734 C158.508973,14.5224133 158.613938,15.5219072 158.528374,16.5146601 C158.319641,18.9364647 157.004812,21.1239369 156.388042,23.4782727 C155.496356,26.9715487 156.157275,30.6707422 158.207383,33.6612126 C159.843538,36.0162641 166.386403,38.1541985 166.291806,41 C167.474368,39.8016925 164.685613,38.5954446 165.868175,37.3971419 C166.960105,36.5816686 167.321171,35.1309087 166.734611,33.915807 L165.478866,29.1251302 C165.248937,28.2479188 165.02284,27.2984027 165.370134,26.4590313 C166.716357,23.2054813 168.171536,28.0351926 169.531984,27.6799123 Z" id="Path" fill="#2F2E41"></path>
                <polygon id="Path" fill="#F2F2F2" points="181.076433 67.1280257 163 137.333062 233.402744 162 274.312592 127.845816 300 51 258.138658 81.3588951"></polygon>
                <polygon id="Rectangle" fill="#E6E6E6" transform="translate(218.589234, 84.011036) rotate(-75.217270) translate(-218.589234, -84.011036) " points="218.125626 48.7010393 219.074882 48.7007434 219.052841 119.321034 218.103585 119.32133"></polygon>
                <polygon id="Rectangle" fill="#E6E6E6" transform="translate(216.692648, 88.758503) rotate(-75.217270) translate(-216.692648, -88.758503) " points="216.229041 53.4485064 217.178297 53.4482104 217.156256 124.068501 216.207 124.068797"></polygon>
                <polygon id="Rectangle" fill="#E6E6E6" transform="translate(215.744353, 93.505973) rotate(-75.217270) translate(-215.744353, -93.505973) " points="215.280746 58.1959755 216.230002 58.1956796 216.207961 128.815969 215.258705 128.816265"></polygon>
                <polygon id="Rectangle" fill="#E6E6E6" transform="translate(214.796060, 98.253438) rotate(-75.217270) translate(-214.796060, -98.253438) " points="214.332452 62.9434412 215.281708 62.9431453 215.259667 133.563436 214.310411 133.563732"></polygon>
                <polygon id="Rectangle" fill="#E6E6E6" transform="translate(213.847769, 103.000908) rotate(-75.217270) translate(-213.847769, -103.000908) " points="213.384162 67.6909105 214.333418 67.6906146 214.311377 138.310904 213.362121 138.3112"></polygon>
                <polygon id="Rectangle" fill="#E6E6E6" transform="translate(212.899474, 107.748377) rotate(-75.217270) translate(-212.899474, -107.748377) " points="212.435866 72.4383801 213.385122 72.4380842 213.363081 143.058375 212.413825 143.058671"></polygon>
                <polygon id="Rectangle" fill="#E6E6E6" transform="translate(211.951176, 112.495842) rotate(-75.217270) translate(-211.951176, -112.495842) " points="211.487568 77.1858455 212.436824 77.1855495 212.414783 147.805839 211.465527 147.806135"></polygon>
                <polygon id="Rectangle" fill="#E6E6E6" transform="translate(211.002885, 117.243312) rotate(-75.217270) translate(-211.002885, -117.243312) " points="210.539277 81.9333152 211.488533 81.9330193 211.466492 152.55331 210.517236 152.553606"></polygon>
                <polygon id="Rectangle" fill="#E6E6E6" transform="translate(210.054590, 121.990782) rotate(-75.217270) translate(-210.054590, -121.990782) " points="209.590983 86.6807844 210.540239 86.6804885 210.518198 157.300779 209.568942 157.301075"></polygon>
                <path d="M152,118.206288 C152,118.206288 173.745665,105.363463 183.414355,113.96762 C193.083044,122.571777 155.375161,135 155.375161,135 L152,118.206288 Z" id="Path" fill="#9F616A"></path>
                <path d="M128.379192,124.405405 L156.202819,114 C156.202819,114 151.405643,131.972971 161,132.918919 L147.56788,149 C147.56788,149 120.7037,149 128.379192,124.405405 Z" id="Path" fill="#3F3D56"></path>
                <polygon id="Path" fill="#E6E6E6" points="201.611688 124 238 136.645327 229.388312 156 193 143.355175"></polygon>
                <polygon id="Path" fill="#CCCCCC" points="265.526264 84.1022826 293 63 285.421207 88.8982111 257 110"></polygon>
                <polygon id="Rectangle" fill="#E6E6E6" transform="translate(266.478060, 109.172600) rotate(-37.183170) translate(-266.478060, -109.172600) " points="249.211164 108.708485 283.745533 108.687457 283.744955 109.636714 249.210587 109.657743"></polygon>
                <polygon id="Rectangle" fill="#E6E6E6" transform="translate(264.581466, 119.617031) rotate(-37.183170) translate(-264.581466, -119.617031) " points="247.314571 119.152916 281.848939 119.131888 281.848361 120.081145 247.313993 120.102174"></polygon>
                <path d="M281.583125,114.874524 C281.583125,114.874524 304.960687,100.640937 289.999049,94.947502 C275.03741,89.254067 275.037406,111.078904 275.037406,111.078904 C275.037406,111.078904 274.102287,115.823432 281.583125,114.874524 Z" id="Path" fill="#9F616A"></path>
                <polygon id="Path" fill="#000000" opacity="0.1" points="142.903331 84 142 121 156 116.803323 144.709527 117.204728"></polygon>
                <path d="M38.8801043,291.560602 C41.7945095,302.330148 51.7769917,309 51.7769917,309 C51.7769917,309 57.0342961,298.208968 54.1198957,287.439422 C51.2054953,276.669876 41.2230083,270 41.2230083,270 C41.2230083,270 35.9657039,280.791056 38.8801043,291.560602 Z" id="Path" fill="#8985A8"></path>
                <path d="M43.7038672,288.681513 C51.9881363,296.689644 53,309 53,309 C53,309 40.5804068,308.326619 32.2961328,300.318487 C24.0118587,292.310356 23,280 23,280 C23,280 35.4195932,280.673377 43.7038672,288.681513 Z" id="Path" fill="#3F3D56"></path>
                <rect id="Rectangle" fill="#878686" x="306" y="185" width="14" height="14"></rect>
                <rect id="Rectangle" fill="#878686" x="247" y="19" width="14" height="14"></rect>
                <circle id="Oval" fill="#878686" cx="77" cy="160" r="7"></circle>
            </g>
        </g>
    </g>
</svg>