<?xml version="1.0" encoding="UTF-8"?>
<svg width="34px" height="34px" viewBox="0 0 34 34" version="1.1" xmlns="http://www.w3.org/2000/svg" xmlns:xlink="http://www.w3.org/1999/xlink">
    <!-- Generator: Sketch 58 (84663) - https://sketch.com -->
    <title>illustration</title>
    <desc>Created with Sketch.</desc>
    <g id="Empty-States-Desktop" stroke="none" stroke-width="1" fill="none" fill-rule="evenodd">
        <g id="Post-Card-Desktop" transform="translate(-553.000000, -265.000000)" fill-rule="nonzero">
            <g id="post">
                <g id="info" transform="translate(550.000000, 40.000000)">
                    <g id="container" transform="translate(0.000000, 222.000000)">
                        <g id="author">
                            <g id="avatar">
                                <g id="inner" transform="translate(3.000000, 3.000000)">
                                    <g id="illustration" transform="translate(-3.000000, -3.000000)">
                                        <path d="M39.9409331,19.9704579 C39.9444833,22.6738483 39.3972654,25.349627 38.332644,27.8345643 L38.2664697,27.9870015 C34.5604355,36.4180637 25.5768916,41.2292391 16.5051699,39.6413589 C16.385229,39.6200886 16.265485,39.5980305 16.145938,39.5751846 C14.9106774,39.335723 13.7010665,38.9790125 12.5335303,38.5098966 C12.34387,38.433678 12.1555884,38.3547021 11.9686854,38.272969 C11.8410635,38.2174298 11.7134417,38.1601182 11.5870015,38.101034 C4.52494309,34.8279761 0.00414581494,27.7541305 0,19.9704579 C0,8.94121123 8.94121123,5.68434189e-14 19.9704579,5.68434189e-14 C30.9997046,5.68434189e-14 39.9409331,8.94121123 39.9409331,19.9704579 Z" id="Path" fill="#000000"></path>
                                        <path d="M16.5051699,39.6413589 C16.385229,39.6200886 16.265485,39.5980305 16.145938,39.5751846 C16.0679468,37.3116691 15.8002954,32.6658789 14.8874417,27.8002954 C14.3881832,25.1373708 13.6951256,22.4076809 12.7338257,19.9675037 C12.4044901,19.123173 12.0283276,18.2978643 11.6070901,17.495421 C10.6357459,15.6608567 9.45760709,14.1163959 8.02895126,13.0700148 L8.23929099,12.7828656 C9.42747415,13.6537666 10.4953225,14.8764156 11.442836,16.4508124 C11.727031,16.9223043 12.000001,17.4253077 12.2617459,17.9598227 C12.5423959,18.5317578 12.8100473,19.1389463 13.0647001,19.7813885 C13.2271817,20.1902511 13.3841487,20.6132939 13.5356012,21.050517 C14.1949808,22.9488922 14.7554929,25.1149188 15.2171374,27.5485968 C15.3193554,28.0862629 15.4166474,28.6371246 15.5090133,29.2011817 C16.2245199,33.5716396 16.4401773,37.6124077 16.5051699,39.6413589 Z" id="Path" fill="#000000" opacity="0.2"></path>
                                        <path d="M11.9686854,38.272969 C11.8410635,38.2174298 11.7134417,38.1601182 11.5870015,38.101034 C11.4635155,36.7598227 11.2366322,35.0960118 10.8218612,33.5166913 C10.6402012,32.8073758 10.4069862,32.1122728 10.1240768,31.4369276 C9.65081241,30.329099 9.03810931,29.3872969 8.24579025,28.8064993 L8.45612999,28.5199409 C9.28567208,29.1273264 9.92555391,30.0874446 10.4200886,31.2106352 C10.9772526,32.4762186 11.3488922,33.9491876 11.5964549,35.3565731 C11.7802068,36.4017725 11.8960118,37.4115214 11.9686854,38.272969 Z" id="Path" fill="#000000" opacity="0.2"></path>
                                        <circle id="Oval" fill="#000000" opacity="0.2" cx="6.04205258" cy="11.2839982" r="1.77775894"></circle>
                                        <circle id="Oval" fill="#000000" opacity="0.2" cx="6.61455835" cy="26.5873459" r="1.77775894"></circle>
                                        <path d="M13.0998222,14.2700969 C12.7228378,16.3969696 13.5550399,18.3228148 13.5550399,18.3228148 C13.5550399,18.3228148 14.9984544,16.8003185 15.3754387,14.6734458 C15.752423,12.5465731 14.9202204,10.6207279 14.9202204,10.6207279 C14.9202204,10.6207279 13.4768059,12.1432242 13.0998222,14.2700969 Z" id="Path" fill="#000000" opacity="0.2"></path>
                                        <path d="M7.19158996,19.3188313 C9.22024225,20.0606334 11.2587545,19.584592 11.2587545,19.584592 C11.2587545,19.584592 10.0081713,17.9058452 7.97951905,17.1640402 C5.95086677,16.4222352 3.9123551,16.8982795 3.9123551,16.8982795 C3.9123551,16.8982795 5.16293767,18.5770263 7.19158996,19.3188313 Z" id="Path" fill="#000000" opacity="0.2"></path>
                                        <path d="M6.84758287,32.8704874 C8.2695031,33.3904331 9.70035332,33.0512496 9.70035332,33.0512496 C9.70035332,33.0512496 8.82581211,31.8690694 7.40389129,31.3491226 C5.98197046,30.8291758 4.55112083,31.1683604 4.55112083,31.1683604 C4.55112083,31.1683604 5.42566204,32.3505418 6.84758287,32.8704874 Z" id="Path" fill="#000000" opacity="0.2"></path>
                                        <circle id="Oval" fill="#D0CDE1" cx="19.9294582" cy="16.6073146" r="7.78553264"></circle>
                                        <path d="M16.8882346,22.5681129 C16.8882346,22.5681129 17.8614263,27.1907728 17.8614263,27.6773684 C17.8614263,28.163964 22.4840863,30.3536461 22.4840863,30.3536461 L26.6201477,29.6237518 L28.0799409,25.2443894 C28.0799409,25.2443894 25.6469619,21.5949211 25.6469619,20.1351338 L16.8882346,22.5681129 Z" id="Path" fill="#D0CDE1"></path>
                                        <path d="M38.332644,27.8345643 L38.2664697,27.9870015 C34.5604355,36.4180637 25.5768916,41.2292391 16.5051699,39.6413589 C16.385229,39.6200886 16.265485,39.5980305 16.145938,39.5751846 C14.9106774,39.335723 13.7010665,38.9790125 12.5335303,38.5098966 C12.34387,38.433678 12.1555884,38.3547021 11.9686854,38.272969 C11.8410635,38.2174298 11.7134417,38.1601182 11.5870015,38.101034 C10.440935,37.5700794 9.34789237,36.9314655 8.3225997,36.1937962 L7.39970458,33.5166913 L7.91846381,33.1208301 L8.98552437,32.3060591 L10.1240768,31.4369306 L10.4200886,31.2106381 L14.8874446,27.8002984 L15.2171344,27.5485997 L17.5391433,25.7760739 L17.5397341,25.775483 C17.5397341,25.775483 20.0508124,29.8670635 23.7004431,28.6505199 C27.3500739,27.4339764 27.2703102,23.9456455 27.2703102,23.9456455 L38.332644,27.8345643 Z" id="Path" fill="#2F2E41"></path>
                                        <path d="M13.1778659,10.334771 C13.1778659,10.334771 15.6497436,4.97903634 20.387509,6.21497489 C25.1252744,7.45091344 27.8031415,9.30482186 28.0091338,11.1587303 C28.2151261,13.0126387 27.9061388,15.7935001 27.9061388,15.7935001 C27.9061388,15.7935001 27.391161,11.9826877 24.0953264,12.8066482 C20.7994919,13.6306086 15.6497448,13.0126381 15.6497448,13.0126381 L14.8257843,20.4282712 C14.8257843,20.4282712 13.8988301,19.0893377 12.8688815,19.9132969 C11.8389329,20.7372561 9.88202954,11.9826883 13.1778659,10.334771 Z" id="Path" fill="#2F2E41"></path>
                                        <path d="M12.5335303,38.5098966 C12.34387,38.433678 12.1555884,38.3547021 11.9686854,38.272969 C11.8410635,38.2174298 11.7134417,38.1601182 11.5870015,38.101034 C9.69152904,37.2220875 7.94532976,36.051841 6.41181684,34.6327917 C6.95480059,33.8930576 7.39970458,33.5166913 7.39970458,33.5166913 L11.0493353,33.5166913 L11.5964549,35.3565731 L12.5335303,38.5098966 Z" id="Path" fill="#2F2E41"></path>
                                        <path d="M35.1355982,27.4339734 L38.2664697,27.9870015 C37.4286105,29.8957246 36.2970311,31.6614749 34.9128508,33.2200886 L35.1355982,27.4339734 Z" id="Path" fill="#2F2E41"></path>
                                    </g>
                                </g>
                            </g>
                        </g>
                    </g>
                </g>
            </g>
        </g>
    </g>
</svg>