<?xml version="1.0" encoding="UTF-8"?>
<svg width="210px" height="220px" viewBox="0 0 210 220" version="1.1" xmlns="http://www.w3.org/2000/svg" xmlns:xlink="http://www.w3.org/1999/xlink">
    <!-- Generator: Sketch 55.2 (78181) - https://sketchapp.com -->
    <title>illustration</title>
    <desc>Created with Sketch.</desc>
    <g id="Empty-States-Desktop" stroke="none" stroke-width="1" fill="none" fill-rule="evenodd">
        <g id="Post-Desktop" transform="translate(-871.000000, -2638.000000)" fill-rule="nonzero">
            <g id="content" transform="translate(208.000000, 175.000000)">
                <g id="author" transform="translate(0.000000, 2366.000000)">
                    <g id="posts" transform="translate(512.000000, 0.000000)">
                        <g id="empty" transform="translate(151.000000, 97.000000)">
                            <g id="illustration">
                                <ellipse id="Oval" fill="#3F3D56" cx="81" cy="205.5" rx="81" ry="14.5"></ellipse>
                                <circle id="Oval" fill="#3F3D56" cx="130.5" cy="79.5" r="79.5"></circle>
                                <circle id="Oval" fill="#000000" opacity="0.05" cx="130.5" cy="79.5" r="65.5"></circle>
                                <circle id="Oval" fill="#000000" opacity="0.05" cx="130.5" cy="79.5" r="53.5"></circle>
                                <circle id="Oval" fill="#000000" opacity="0.05" cx="130.5" cy="79.5" r="38.5"></circle>
                                <path d="M52.2435122,87 C52.2435122,87 45.9044394,104.538463 48.7218039,110.769233 C51.5391684,117 56,123 56,123 C56,123 54.3565356,88.1538465 52.2435122,87 Z" id="Path" fill="#D0CDE1"></path>
                                <path d="M52.2435122,87 C52.2435122,87 45.9044394,104.538463 48.7218039,110.769233 C51.5391684,117 56,123 56,123 C56,123 54.3565356,88.1538465 52.2435122,87 Z" id="Path" fill="#000000" opacity="0.1"></path>
                                <path d="M56.2969857,127.461475 C56.2969857,127.461475 55.8374065,131.84556 55.6076182,132.0763 C55.3778298,132.307041 55.8374065,132.768524 55.6076182,133.460748 C55.3778298,134.152971 55.1480389,135.075938 55.6076182,135.306678 C56.0671974,135.537419 53.0799362,155.842655 53.0799362,155.842655 C53.0799362,155.842655 45.7266787,165.533791 48.7139399,180.762716 L49.6330958,196.222383 C49.6330958,196.222383 56.756565,196.683867 56.756565,194.14571 C56.756565,194.14571 56.2969857,191.146075 56.2969857,189.761625 C56.2969857,188.377175 57.4459325,188.377178 56.756565,187.684954 C56.0671974,186.992731 56.0671974,186.531247 56.0671974,186.531247 C56.0671974,186.531247 57.2161416,185.608284 56.9863533,185.377541 C56.756565,185.146798 59.054456,168.764168 59.054456,168.764168 C59.054456,168.764168 61.582138,166.226014 61.582138,164.841564 L61.582138,163.457117 C61.582138,163.457117 62.7310848,160.457482 62.7310848,160.226739 C62.7310848,159.995996 68.9353955,145.920778 68.9353955,145.920778 L71.4630775,156.073395 L74.2205503,170.610099 C74.2205503,170.610099 75.5992855,183.762353 78.3567557,188.838669 C78.3567557,188.838669 83.1823313,205.452044 83.1823313,204.990561 C83.1823313,204.529077 91.2249564,203.375371 90.9951681,201.2987 C90.7653798,199.222029 86.1695925,170.148623 86.1695925,170.148623 L87.3185394,127 L56.2969857,127.461475 Z" id="Path" fill="#2F2E41"></path>
                                <path d="M49.5775867,194.818923 C49.5775867,194.818923 43.2174319,207.269186 47.457536,207.738994 C51.69764,208.208802 53.3465674,208.208815 55.2310578,206.329532 C56.2613067,205.30213 58.3476274,203.923675 60.0273897,202.88508 C62.05835,201.649585 63.2017582,199.364525 62.970533,197.003314 C62.8463025,195.853997 62.4156762,194.907015 61.3556496,194.818923 C58.5289153,194.584014 55.2310605,192 55.2310605,192 L49.5775867,194.818923 Z" id="Path" fill="#2F2E41"></path>
                                <path d="M84.5775867,203.818923 C84.5775867,203.818923 78.2174319,216.269183 82.457536,216.738993 C86.69764,217.208804 88.3465674,217.208812 90.2310578,215.329532 C91.2613067,214.302127 93.3476274,212.923675 95.0273897,211.88508 C97.05835,210.649586 98.2017582,208.364526 97.970533,206.003316 C97.8463025,204.853999 97.4156762,203.907017 96.3556522,203.818923 C93.5289153,203.584014 90.2310632,201 90.2310632,201 L84.5775867,203.818923 Z" id="Path" fill="#2F2E41"></path>
                                <circle id="Oval" fill="#FFB8B8" cx="78" cy="57" r="10"></circle>
                                <path d="M71.6596624,60 C71.6596624,60 64.5836382,72.8196716 64.0175666,72.8196716 C63.451495,72.8196716 76.754393,77 76.754393,77 C76.754393,77 80.4339203,64.7377039 81,63.6229502 L71.6596624,60 Z" id="Path" fill="#FFB8B8"></path>
                                <path d="M82.2136912,74.4352644 C82.2136912,74.4352644 68.3421324,66.772983 66.9549695,67.0051724 C65.5678065,67.2373618 50.7714865,80.2400255 51.0026807,85.5804025 C51.233875,90.9207795 53.0834134,99.7440158 53.0834134,99.7440158 C53.0834134,99.7440158 53.7769909,124.356194 55.164146,124.588383 C56.5513011,124.820573 54.9329543,129 55.3953403,129 C55.8577262,129 87.7623036,129 87.9934979,128.303429 C88.2246921,127.606858 82.2136912,74.4352644 82.2136912,74.4352644 Z" id="Path" fill="#D0CDE1"></path>
                                <path d="M89.760483,129 C89.760483,129 94.2829428,142.452141 90.4745553,141.988273 C86.6661678,141.524406 85,130.3916 85,130.3916 L89.760483,129 Z" id="Path" fill="#FFB8B8"></path>
                                <path d="M78.3917384,73.0237455 C78.3917384,73.0237455 69.7527436,74.8812654 71.1536636,86.490763 C72.5545836,98.1002606 75.1229304,109.709761 75.1229304,109.709761 L83.7619252,128.517149 L84.6958692,132 L91,130.374669 L86.3302746,103.440631 C86.3302746,103.440631 84.6958692,74.6490764 82.5944932,73.7203152 C81.2693687,73.1585312 79.828452,72.9197119 78.3917384,73.0237455 Z" id="Path" fill="#D0CDE1"></path>
                                <polygon id="Path" fill="#000000" opacity="0.1" points="73 109.019814 84 128 74.7323264 108"></polygon>
                                <path d="M87.5702143,54.1413723 L87.602456,53.3736691 L89.0850727,53.7537804 C89.0529239,53.2549921 88.8101074,52.7957952 88.4207348,52.4974332 L90,52.4064751 C87.3221213,48.486631 83.2044847,45.865367 78.6032153,45.1513468 C75.1872243,44.6413469 71.3836167,45.3793504 69.041169,47.9907611 C67.9049764,49.2574174 67.1910576,50.8682133 66.683211,52.5115371 C65.7478684,55.5381759 65.5572934,59.1461427 67.507658,61.6063577 C69.4898891,64.1067666 72.952279,64.5965676 76.0717757,64.9060177 C77.1693893,65.0149071 78.31966,65.1162179 79.3367962,64.6775459 C79.4500036,63.4757887 79.3006578,62.2631682 78.8997096,61.1285999 C78.7327437,60.7773789 78.6529473,60.3889863 78.6674662,59.9982024 C78.8061319,59.0422513 80.0440393,58.8014124 80.9739696,58.9305688 C81.9038998,59.0597253 83.0220689,59.2573215 83.633118,58.5237797 C84.0540072,58.0185083 84.029181,57.2827125 84.0849433,56.6193717 C84.2367595,54.8135331 87.5543234,54.5199481 87.5702143,54.1413723 Z" id="Path" fill="#2F2E41"></path>
                                <circle id="Oval" fill="#000000" cx="147" cy="196" r="11"></circle>
                                <circle id="Oval" fill="#000000" cx="14" cy="192" r="11"></circle>
                                <circle id="Oval" fill="#000000" cx="14" cy="177" r="8"></circle>
                                <circle id="Oval" fill="#000000" cx="14.5" cy="164.5" r="5.5"></circle>
                            </g>
                        </g>
                    </g>
                </g>
            </g>
        </g>
    </g>
</svg>