<?xml version="1.0" encoding="UTF-8"?>
<svg width="325px" height="235px" viewBox="0 0 325 235" version="1.1" xmlns="http://www.w3.org/2000/svg" xmlns:xlink="http://www.w3.org/1999/xlink">
    <!-- Generator: Sketch 58 (84663) - https://sketch.com -->
    <title>illustration</title>
    <desc>Created with Sketch.</desc>
    <g id="Empty-States-Mobile" stroke="none" stroke-width="1" fill="none" fill-rule="evenodd">
        <g id="Post-Card" transform="translate(-25.000000, -8.000000)" fill-rule="nonzero">
            <g id="post">
                <g id="image">
                    <g id="illustration" transform="translate(25.000000, 8.000000)">
                        <ellipse id="Oval" fill="#3F3D56" cx="159.466667" cy="224.3604" rx="82.3333333" ry="10.4"></ellipse>
                        <path d="M300.179074,135.660707 L268.204226,150.764125 L296.503355,129.645059 C291.903962,122.480078 286.737015,115.694226 281.052064,109.352578 L142.381069,143.752261 L267.640066,96.0640847 C261.916165,91.0237333 255.83747,86.3995342 249.450751,82.2270663 L38.148798,116.195453 C15.7138822,144.19512 3.48393832,178.97554 3.46666667,214.827066 L321.533333,214.827066 C321.52045,187.022483 314.154255,159.713888 300.179074,135.660707 Z" id="Path" fill="#F2F2F2" opacity="0.499093192"></path>
                        <path d="M231.4,72.8601859 C209.646306,62.4530125 185.75541,57.0602735 161.5522,57.093733 C112.292589,57.093733 68.2519243,79.0031133 39,113.427066 C89.0911441,102.661502 176.303824,84.0256979 231.4,72.8601859 Z" id="Path" fill="#F2F2F2" opacity="0.495349702"></path>
                        <circle id="Oval" fill="#000000" opacity="0.4" cx="262.6" cy="81.3603996" r="4.33333333"></circle>
                        <circle id="Oval" fill="#000000" opacity="0.4" cx="254.366667" cy="84.393733" r="3.03333333"></circle>
                        <circle id="Oval" fill="#000000" opacity="0.4" cx="38.1333333" cy="96.093733" r="9.53333333"></circle>
                        <circle id="Oval" fill="#000000" opacity="0.4" cx="18.6333333" cy="101.727066" r="7.36666667"></circle>
                        <rect id="Rectangle" fill="#2F2E41" x="0" y="214.827066" width="325" height="1"></rect>
                        <path d="M288.390217,213.9604 L263.466667,175.827066 C263.466667,175.827066 301.211434,189.399948 296.927813,213.9604 L288.390217,213.9604 Z" id="Path" fill="#3F3D56"></path>
                        <path d="M289.67645,213.9604 L314.6,175.827066 C314.6,175.827066 276.855232,189.399948 281.138854,213.9604 L289.67645,213.9604 Z" id="Path" fill="#000000"></path>
                        <path d="M65.8666667,42.5231641 C65.8666667,40.4457872 62.8910218,38.7617455 59.2203639,38.7617455 C59.1477153,38.7617455 59.0758409,38.7635297 59.0037513,38.7648407 C57.8964496,35.3859273 52.662009,32.8270663 46.3708479,32.8270663 C41.0182077,32.8270663 36.4306626,34.6795048 34.4988479,37.3132163 C33.0715476,36.9372035 31.6007561,36.7497431 30.1243307,36.7556603 C24.4959941,36.7556539 19.9333333,39.3378695 19.9333333,42.5231641 C19.9333333,45.4166477 23.6985336,47.8120232 28.6071945,48.2267242 C32.1741395,48.8759368 37.7457885,49.293733 44.0077096,49.293733 C54.6387741,49.293733 62.417629,47.2750112 62.6127236,45.7576077 C64.5607178,45.1017889 65.8666667,43.8990299 65.8666667,42.5231641 Z" id="Path" fill="#F2F2F2" opacity="0.495186942"></path>
                        <path d="M227.066667,44.2564975 C227.066667,42.1791206 224.091022,40.4950788 220.420364,40.4950788 C220.347715,40.4950788 220.275841,40.4968631 220.203751,40.498174 C219.09645,37.1192607 213.862009,34.5603996 207.570848,34.5603996 C202.218208,34.5603996 197.630663,36.4128382 195.698848,39.0465497 C194.271548,38.6705368 192.800756,38.4830764 191.324331,38.4889936 C185.695994,38.4889872 181.133333,41.0712028 181.133333,44.2564975 C181.133333,47.149981 184.898534,49.5453566 189.807194,49.9600575 C193.374139,50.6092702 198.945789,51.0270663 205.20771,51.0270663 C215.838774,51.0270663 223.617629,49.0083445 223.812724,47.490941 C225.760718,46.8351223 227.066667,45.6323632 227.066667,44.2564975 Z" id="Path" fill="#F2F2F2" opacity="0.503417969"></path>
                        <path d="M314.6,17.6010148 C314.6,13.9929369 309.490873,11.0680144 303.188424,11.0680144 C303.063682,11.0680144 302.940283,11.0711151 302.816506,11.0733932 C300.915289,5.20474778 291.927851,0.760399637 281.126046,0.760399637 C271.935663,0.760399637 264.058938,3.97778842 260.742048,8.5521353 C258.291399,7.89906177 255.766077,7.57347307 253.231082,7.58374962 C243.567338,7.58374962 235.733333,12.0686284 235.733333,17.6010084 C235.733333,22.6265367 242.198113,26.7869265 250.626191,27.5071955 C256.750565,28.6347772 266.316985,29.3603996 277.068594,29.3603996 C295.321933,29.3603996 308.678078,25.8541958 309.013051,23.2187117 C312.357711,22.079689 314.6,19.9906792 314.6,17.6010148 Z" id="Path" fill="#F2F2F2" opacity="0.503208705"></path>
                        <path d="M180.865828,93.0877013 C174.386256,81.9228472 161.56694,81.4025156 161.56694,81.4025156 C161.56694,81.4025156 149.075246,79.7735199 141.061905,96.7777292 C133.592829,112.62705 123.284555,127.929906 139.402356,131.640104 L142.313699,122.399613 L144.116676,132.328033 C146.411541,132.496351 148.71372,132.536475 151.012885,132.448226 C168.273748,131.879929 184.71211,132.614491 184.18282,126.298153 C183.479218,117.901489 187.100475,103.830521 180.865828,93.0877013 Z" id="Path" fill="#2F2E41"></path>
                        <path d="M137.853737,190.477144 C137.660918,191.729764 137.381043,192.966615 137.016257,194.178224 C136.605433,195.364177 135.971165,196.460957 135.595534,197.659142 C134.398188,201.478425 136.058065,205.736828 138.709149,208.684819 C141.008167,211.231102 143.975716,213.04012 147.253839,213.893661 C149.645465,214.511167 152.132208,214.600043 154.596886,214.685843 C161.421746,214.923433 168.422205,215.135994 174.889164,212.884307 C176.932333,212.15539 178.905826,211.234994 180.78468,210.13476 C181.377903,209.844611 181.900538,209.422146 182.314441,208.898198 C182.807674,208.177307 182.870775,207.242371 182.866667,206.361431 C182.85196,203.391218 182.265413,200.436154 182.404676,197.469347 C182.481804,195.826036 182.781393,194.183998 182.633928,192.54576 C182.215708,188.733453 179.509422,185.60199 175.872153,184.721659 C174.037607,184.317226 172.134821,184.537605 170.267095,184.721968 C165.418937,185.200208 160.550134,185.4237 155.679747,185.391569 C150.703455,185.358962 145.757891,184.579127 140.806368,184.497683 C139.342061,184.473597 139.371642,184.937039 138.905458,186.391924 C138.476051,187.730977 138.124853,189.095141 137.853737,190.477144 L137.853737,190.477144 Z" id="Path" fill="#2F2E41"></path>
                        <path d="M152.60307,119.338727 C152.356322,120.580012 152.089626,121.866699 151.313214,122.886776 C150.419931,124.060407 148.963468,124.730989 148.002486,125.854174 C146.556015,127.544799 146.472989,129.92378 146.467026,132.112265 C146.461534,134.12834 146.504157,136.278701 147.674353,137.952196 C148.433804,139.038304 149.589411,139.79976 150.718783,140.530983 C155.107247,143.37237 159.849445,146.264771 165.140526,146.358477 C167.332818,146.3973 169.683449,145.853354 171.12595,144.266806 C171.748766,143.521578 172.23848,142.682174 172.575117,141.782833 C173.92801,138.578709 174.748119,135.190138 175.005399,131.741254 C175.125896,130.118658 175.114382,128.448714 174.542753,126.917489 C173.899977,125.195681 172.600294,123.778978 171.741322,122.146514 C170.725929,120.205341 170.354544,118.011696 170.677252,115.861412 C170.719998,115.710002 170.706805,115.549039 170.639918,115.405924 C170.496704,115.250648 170.286134,115.168673 170.070811,115.18437 L159.579448,114.458748 C158.602337,114.412102 157.629357,114.305162 156.666526,114.13859 C156.100949,114.028104 154.607179,113.256394 154.06791,113.461599 C153.069672,113.841454 152.807686,118.30938 152.60307,119.338727 Z" id="Path" fill="#FFB8B8"></path>
                        <path d="M152.60307,119.338727 C152.356322,120.580012 152.089626,121.866699 151.313214,122.886776 C150.419931,124.060407 148.963468,124.730989 148.002486,125.854174 C146.556015,127.544799 146.472989,129.92378 146.467026,132.112265 C146.461534,134.12834 146.504157,136.278701 147.674353,137.952196 C148.433804,139.038304 149.589411,139.79976 150.718783,140.530983 C155.107247,143.37237 159.849445,146.264771 165.140526,146.358477 C167.332818,146.3973 169.683449,145.853354 171.12595,144.266806 C171.748766,143.521578 172.23848,142.682174 172.575117,141.782833 C173.92801,138.578709 174.748119,135.190138 175.005399,131.741254 C175.125896,130.118658 175.114382,128.448714 174.542753,126.917489 C173.899977,125.195681 172.600294,123.778978 171.741322,122.146514 C170.725929,120.205341 170.354544,118.011696 170.677252,115.861412 C170.719998,115.710002 170.706805,115.549039 170.639918,115.405924 C170.496704,115.250648 170.286134,115.168673 170.070811,115.18437 L159.579448,114.458748 C158.602337,114.412102 157.629357,114.305162 156.666526,114.13859 C156.100949,114.028104 154.607179,113.256394 154.06791,113.461599 C153.069672,113.841454 152.807686,118.30938 152.60307,119.338727 Z" id="Path" fill="#000000" opacity="0.1"></path>
                        <circle id="Oval" fill="#FFB8B8" cx="163.366667" cy="105.193733" r="15.1666667"></circle>
                        <path d="M155.413079,137.31834 C156.203491,138.136403 157.041045,138.946408 158.076779,139.425965 C159.131242,139.857499 160.263673,140.071001 161.404506,140.053355 C164.138182,140.129499 167.10167,139.633507 169.003349,137.687442 C171.454709,135.178865 171.373966,131.13276 173.295433,128.206166 C173.450252,127.940827 173.661527,127.712026 173.914595,127.535642 C174.236892,127.361896 174.601129,127.278972 174.967698,127.295888 C177.394429,127.273424 179.508351,128.83191 181.41615,130.317145 C182.270799,130.982495 183.14671,131.671799 183.685883,132.606588 C184.063107,133.335412 184.321437,134.118771 184.451282,134.927583 C185.398022,139.503859 185.704634,144.182945 186.008933,148.844526 C186.177009,151.419326 186.345165,153.996606 186.332678,156.576752 C186.291526,165.077237 184.296177,173.435562 182.311954,181.70596 C182.056288,182.771602 181.70641,183.962735 180.727726,184.473168 C180.291475,184.667395 179.82291,184.780638 179.345347,184.807262 C173.662116,185.468171 167.967124,186.129879 162.245512,186.217135 C160.012673,186.251188 157.780802,186.197668 155.549899,186.056576 C155.165858,186.051553 154.785092,185.985824 154.421989,185.861875 C153.929184,185.627572 153.505685,185.271454 153.192353,184.827883 C150.097463,180.966137 149.914784,175.627215 149.934563,170.697285 C149.98293,158.64403 150.417839,146.600405 151.23929,134.566411 C151.307114,133.573137 151.321921,132.366818 150.599123,131.585456 C151.900559,133.648497 153.710733,135.556439 155.413079,137.31834 Z" id="Path" fill="#D0CDE1"></path>
                        <path d="M151.688088,121.697465 C151.175575,122.61213 147.397035,124.883403 146.667548,125.641489 C142.5918,129.877035 135.152974,129.718101 131.425408,134.254707 C130.113938,135.850831 129.432551,137.856334 128.931419,139.850162 C128.222656,142.670083 127.844206,145.745465 129.031506,148.404405 C130.173967,150.962903 132.578976,152.731705 134.211821,155.017101 C136.004661,157.526435 136.81076,160.573282 137.583265,163.546669 C138.153655,165.742111 138.728761,167.99192 138.506625,170.247643 C138.254059,172.812338 136.995241,175.160694 136.252,177.631059 C135.508759,180.101425 135.380476,183.043665 137.098964,184.985082 C138.361482,186.411382 140.34177,186.976819 142.234588,187.294903 C144.658926,187.654046 147.103611,187.863869 149.554427,187.923153 C151.718175,188.017405 154.103247,188.035731 155.766638,186.668156 C157.079129,185.589073 157.649576,183.837985 157.723412,182.154669 C157.797248,180.471353 157.442014,178.802944 157.219503,177.132399 C156.98884,175.400629 156.900191,173.653771 156.82603,171.908665 C156.493248,164.07859 156.447839,156.243482 156.689801,148.403342 C156.740203,146.771918 156.801331,145.120459 156.448493,143.525781 C155.984448,141.428507 154.834768,139.554181 153.875467,137.627186 C151.971368,133.80231 151.070876,130.086733 151.365205,125.835543 C151.65575,121.639434 153.511819,118.442619 151.688088,121.697465 Z" id="Path" fill="#000000"></path>
                        <path d="M171.577257,121.715372 C172.347869,122.499642 174.966393,122.758188 175.946671,123.26327 C176.868751,123.685058 177.830931,124.014936 178.81899,124.248029 C182.394714,125.269481 185.795875,126.815218 188.909405,128.833855 C189.556326,129.208632 190.128271,129.697823 190.596804,130.277104 C191.145218,131.032561 191.34428,131.97521 191.530211,132.887195 C192.010194,135.241575 192.492593,137.62434 192.384731,140.023841 C192.270236,142.570885 191.49544,145.037706 190.726782,147.471007 L187.854765,156.563084 C185.710991,163.349684 183.55362,170.203098 182.950397,177.288822 C182.616674,181.215899 182.765057,185.168559 183.392297,189.060264 C183.455402,189.451517 183.508347,189.899997 183.247435,190.200394 C183.058218,190.385597 182.809263,190.499025 182.544123,190.520837 C181.157954,190.735461 179.816481,190.035593 178.560573,189.416309 C174.721964,187.52472 170.625358,186.197396 166.4,185.476214 C168.051138,183.1134 169.32507,180.512956 170.177033,177.766258 C170.660883,176.022181 171.041916,174.251722 171.318204,172.463844 L172.654252,164.812185 C173.197816,162.015465 173.580465,159.190422 173.800347,156.350714 C173.901346,155.285033 173.838645,154.210349 173.61438,153.163276 C173.306487,152.166844 172.897664,151.203783 172.394143,150.288778 C170.19229,145.753498 169.159169,140.577932 170.025516,135.619447 C170.404655,133.449467 171.141435,131.276582 170.834208,129.095483 C170.538821,126.998443 170.845809,125.368676 170.302443,123.293349 C168.071405,114.772272 170.127473,120.239909 171.577257,121.715372 Z" id="Path" fill="#000000"></path>
                        <path d="M130.076956,141.242795 C129.073117,143.338138 127.39486,145.123178 126.823659,147.377043 C126.601392,148.430403 126.506149,149.50687 126.539993,150.583157 C126.526456,152.205272 126.517682,153.860281 127.012851,155.40409 C127.331657,156.398007 127.850316,157.314618 128.223964,158.289013 C128.744805,159.650336 128.976845,161.10618 128.90518,162.563051 C128.80437,164.581389 128.122692,166.540593 128.069417,168.560769 C127.98564,171.737664 129.446466,174.724207 130.871887,177.5604 C131.598104,175.751427 133.081036,174.357076 134.924271,173.750079 C136.767507,173.143082 138.783112,173.385328 140.432284,174.41206 C140.808313,174.06275 140.84847,173.489143 140.863182,172.974501 C140.968546,169.288812 141.070178,165.603017 141.168078,161.917117 C141.322373,156.216632 141.469363,150.439972 140.165686,144.890193 C139.577079,142.384453 138.661208,139.888396 136.982221,137.944881 C136.098142,136.921534 133.096925,134.225968 131.645683,135.372406 C130.993051,135.887959 131.145583,137.291356 131.042173,138.002002 C130.886089,139.125341 130.560608,140.218167 130.076956,141.242795 L130.076956,141.242795 Z" id="Path" fill="#000000"></path>
                        <path d="M193.634174,135.125981 C194.0924,136.577235 194.119811,138.127925 194.128938,139.652146 C194.147554,142.761395 194.107039,145.870232 194.007391,148.978658 C193.956371,150.569972 193.886122,152.183211 193.411707,153.7005 C193.098836,154.701133 192.616017,155.639473 192.2929,156.636734 C191.324542,159.625459 191.853632,162.867029 191.936656,166.012721 C191.995279,167.030855 191.909849,168.052275 191.682982,169.045709 C191.171943,170.995792 189.798561,172.57152 188.840013,174.338591 C187.929649,176.016826 187.380343,177.897942 186.293069,179.46348 C185.205795,181.029018 183.323619,182.269515 181.499268,181.788917 C180.11698,181.42477 179.13478,180.18038 178.455401,178.903034 C176.972904,176.094538 176.465877,172.859325 177.016417,169.721246 C177.698479,165.903271 179.903529,162.516229 180.698767,158.72097 C181.790802,153.509238 180.131093,148.131141 180.180486,142.802616 C180.157958,141.967349 180.269353,141.133926 180.510294,140.335086 C180.927414,139.117946 181.823289,138.14597 182.650909,137.169812 C183.685115,135.949918 184.64586,134.667548 185.527885,133.329718 C186.120382,132.431013 186.925088,130.119555 187.975541,129.927364 C190.320812,129.498271 193.052316,133.283161 193.634174,135.125981 Z" id="Path" fill="#000000"></path>
                        <path d="M118.550462,188.402392 C117.219182,188.067688 115.847479,187.921824 114.475607,187.96908 C111.559752,188.130308 108.853879,189.537589 107.047048,191.832553 C105.240217,194.127517 104.506795,197.088689 105.033551,199.961998 C105.365978,201.500581 105.90934,202.985837 106.648223,204.375629 C107.728882,206.569396 109.024988,208.758128 111.025569,210.163946 C112.195858,210.986315 113.550327,211.499051 114.888697,212.003398 L125.425372,215.973994 C126.975435,216.558113 128.525729,217.142317 130.091138,217.683945 C137.955577,220.403159 146.15484,222.033703 154.46101,222.530254 C156.991054,222.680959 159.5594,222.722896 162.027607,222.146722 C162.613329,222.00999 163.238121,221.806163 163.577237,221.309264 C163.778077,220.959227 163.896489,220.567993 163.923474,220.165304 L164.571841,215.624869 C164.663135,214.98556 164.750975,214.31262 164.516734,213.710819 C164.219719,212.947741 163.475214,212.467713 162.765345,212.059872 C155.838227,208.080027 147.749986,205.884377 141.919334,200.422108 C140.546702,199.136202 139.398031,197.09791 137.730301,196.224422 C135.839117,195.233893 133.611889,194.668565 131.657087,193.755808 C127.383653,191.760407 123.182047,189.467389 118.550462,188.402392 Z" id="Path" fill="#2F2E41"></path>
                        <path d="M128.956887,193.327288 C132.922202,194.483622 149.663778,202.49484 152.533333,205.291923 C152.148694,205.420891 139.098348,198.614525 138.706747,198.505147 C135.147183,197.510941 131.567824,196.510212 128.187497,195.055233 C127.507471,194.76253 123.769619,193.386755 123.938907,192.588252 C124.129914,191.687201 128.252936,193.122005 128.956887,193.327288 Z" id="Path" fill="#000000" opacity="0.1"></path>
                        <path d="M176.863802,225.220628 C177.080577,225.234561 177.295754,225.179062 177.469359,225.064441 C177.623186,224.891286 177.691367,224.671307 177.65864,224.453743 C177.652706,222.600887 177.646775,220.748033 177.640846,218.895179 C175.816952,218.133607 173.776802,217.889495 171.774283,217.654914 L162.43085,216.5604 C162.645519,216.585548 160.969955,220.087224 161.226867,220.554711 C161.679684,221.378657 165.140196,222.108898 166.116832,222.497931 C169.511973,223.850344 173.039961,225.337162 176.863802,225.220628 Z" id="Path" fill="#FFB8B8"></path>
                        <path d="M147.82544,218.503481 C146.081543,218.783702 144.135126,219.031406 143.00575,220.400935 C141.573552,222.137681 142.183247,224.726736 142.866456,226.878222 C142.967976,227.313457 143.171728,227.717689 143.460537,228.056843 C143.926792,228.520885 144.641284,228.588873 145.294935,228.63063 C146.885345,228.732226 148.577862,228.811832 149.967462,228.024815 C150.596879,227.605184 151.202831,227.150787 151.782547,226.663699 C152.807257,225.975813 153.933651,225.456283 155.119729,225.12448 C157.300153,224.432555 159.544619,223.965914 161.818551,223.731746 C162.714556,223.690564 163.601539,223.532826 164.457496,223.262446 C165.295971,222.943817 166.07236,222.31201 166.315941,221.442133 C166.637822,220.292631 165.975607,219.12067 165.340468,218.112563 C164.549297,216.856768 163.711113,215.534486 162.531435,214.61002 C160.810427,213.261334 159.959097,214.296663 158.225506,215.159718 C154.944357,216.793437 151.438547,217.920603 147.82544,218.503481 L147.82544,218.503481 Z" id="Path" fill="#FFB8B8"></path>
                        <path d="M142.497339,218.93088 L131.38665,215.631952 C130.035382,215.23074 128.661029,214.82602 127.251971,214.827066 C125.842913,214.828117 124.368689,215.292234 123.454846,216.369659 C122.59329,217.385449 122.346694,218.773752 122.131909,220.090695 L121.672456,222.907834 C121.438968,224.339472 121.205052,225.798643 121.415208,227.233924 C121.625364,228.669205 122.354726,230.103143 123.622452,230.797955 C125.159959,231.640619 127.044359,231.229035 128.760302,230.876566 C132.226376,230.164859 135.751846,229.785077 139.28933,229.742326 C140.619219,229.726348 142.014113,229.743084 143.189255,229.117421 C144.586141,228.373702 145.42184,226.801147 145.565548,225.219555 C145.784173,222.813097 144.985713,219.669733 142.497339,218.93088 Z" id="Path" fill="#2F2E41"></path>
                        <path d="M181.395758,216.213235 C182.801398,215.958001 184.041952,215.130326 185.388858,214.641816 C187.284697,213.954172 189.339185,213.954182 191.347841,213.961776 C192.085223,213.964562 192.87045,213.981693 193.484251,214.40505 C194.36903,215.015312 194.595797,216.236579 194.746242,217.326696 L195.653937,223.903928 C195.824666,225.141036 195.994383,226.411246 195.728085,227.630103 C195.461788,228.84896 194.659879,230.023997 193.492452,230.338428 C192.074573,230.720317 190.684593,229.781944 189.345847,229.165524 C185.999762,227.624828 182.110134,228.018628 178.621238,226.867084 C177.973769,226.653383 177.280326,226.326604 177.016192,225.677963 C176.896853,225.312649 176.854277,224.925125 176.891319,224.54137 C176.951066,222.427252 176.520676,219.540387 177.135038,217.519888 C177.68755,215.702807 179.826706,216.213235 181.395758,216.213235 Z" id="Path" fill="#2F2E41"></path>
                        <path d="M203.859395,185.943941 C206.029066,185.383272 208.278234,185.224912 210.501741,185.476266 C212.277496,185.677869 214.107069,186.187081 215.403574,187.453683 C216.9816,188.995326 217.488625,191.379503 217.530933,193.619889 C217.600301,198.082162 216.164143,202.430834 213.467771,205.923099 C212.809336,206.806395 212.026331,207.58317 211.144774,208.227614 C210.193795,208.840659 209.180242,209.344002 208.122414,209.728556 L184.661244,219.264807 C178.489123,221.773588 172.295224,224.289633 165.857376,225.943547 C165.501788,226.120447 165.091976,226.141992 164.720765,226.003302 C164.349554,225.864611 164.048358,225.577422 163.885399,225.206784 C161.829828,222.18096 160.105332,218.930114 158.743366,215.513543 C158.612479,215.34876 158.567758,215.12857 158.623531,214.923525 C158.679304,214.718481 158.828568,214.554327 159.023498,214.483661 L175.617772,204.658049 C176.806406,203.954239 178.008326,203.240302 178.995301,202.259838 C179.712471,201.543594 180.299711,200.70108 180.729346,199.771999 C181.073319,199.031616 181.105408,197.284422 181.544772,196.737166 C181.974947,196.201357 183.446511,196.158598 184.126154,195.947855 C185.084667,195.64529 186.023343,195.279625 186.936391,194.853116 C190.648403,193.14179 193.953894,190.65532 197.512361,188.651524 C199.508198,187.475566 201.64096,186.565751 203.859395,185.943941 L203.859395,185.943941 Z" id="Path" fill="#2F2E41"></path>
                        <path d="M196.449177,192.371987 C193.51114,194.506709 189.706895,196.469007 186.794988,198.659977 C185.801186,199.407723 169.234247,208.418137 169,209.614826 C171.716644,210.05764 189.02195,198.346017 191.497893,197.177385 C193.973836,196.008753 196.168699,194.360737 198.343605,192.724874 C198.897864,192.307989 201.246799,191.054764 199.655704,190.588992 C198.759387,190.326617 197.110904,191.945224 196.449177,192.371987 Z" id="Path" fill="#000000" opacity="0.1"></path>
                        <polygon id="Path" fill="#2F2E41" points="179.658552 91.2849833 166.886555 84.8270663 149.249322 87.4688444 145.6 103.027066 154.683818 102.689792 157.221474 96.9738174 157.221474 102.595563 161.412888 102.439733 163.845664 93.3400384 165.36611 103.027066 180.266667 102.7334"></polygon>
                        <rect id="Rectangle" fill="#3F3D56" x="147.333333" y="125.5604" width="28.6" height="32.9333333"></rect>
                        <path d="M135.935486,183.414426 C136.550253,184.363065 137.270576,185.290975 138.258045,185.802733 C139.534032,186.405109 141.007703,186.364284 142.250642,185.692125 C143.475622,185.013216 144.478323,183.974086 145.131946,182.706141 C146.484225,180.237902 146.764282,177.284394 146.595536,174.453223 C146.42679,171.622052 145.841947,168.834246 145.583101,166.010357 C145.394935,163.957573 145.379633,161.892565 145.364479,159.830655 C145.317763,159.397061 145.405759,158.95935 145.615726,158.580887 C145.915247,158.158115 146.463651,158.041628 146.949616,157.892386 C149.678816,157.054225 151.490383,154.410088 152.789147,151.791242 C153.656368,150.042574 154.41049,148.131033 154.243258,146.173597 C154.076026,144.216162 152.714823,142.244233 150.823558,142.044551 C149.264346,141.879924 147.824654,142.903567 146.699926,144.031835 C143.862648,146.895855 142.039194,150.662605 141.522548,154.726862 C141.275655,156.717127 141.346372,158.761553 140.822651,160.693708 C139.704404,164.819233 136.205627,167.348617 134.462041,171.060853 C132.540788,175.151335 133.601167,179.795181 135.935486,183.414426 Z" id="Path" fill="#FFB8B8"></path>
                        <path d="M187.515776,167.640383 C186.687151,169.608251 185.114561,171.150725 183.15525,171.917402 C181.949797,172.411669 180.620091,172.494801 179.364559,172.154391 C178.102514,171.797003 177.075779,170.859548 176.58764,169.618941 C176.395546,169.002443 176.290229,168.361212 176.274845,167.714471 C176.094471,164.88218 176.16417,161.963592 177.172007,159.318342 C177.560727,158.298067 178.08485,157.330464 178.391629,156.281489 C178.69312,155.070001 178.847362,153.825234 178.850873,152.575272 L179.182183,144.847372 C179.236972,144.286339 179.198957,143.719895 179.069727,143.171731 C178.739262,142.053548 177.715489,141.326882 176.776132,140.660048 C174.507531,139.049605 172.26569,137.170389 171.166403,134.582514 C170.788739,133.803356 170.653484,132.924951 170.778777,132.065096 C171.088738,130.530551 172.605838,129.537094 174.105327,129.202414 C176.087875,128.759905 178.161466,129.163183 179.845732,130.318823 C181.529999,131.474464 182.678795,133.28219 183.02599,135.323225 C183.174343,136.195334 183.172303,137.086165 183.259136,137.966875 C183.443327,139.835073 184.024331,141.635913 184.387801,143.476532 C185.283104,148.010357 184.81918,152.697025 185.704527,157.230079 C186.444785,161.020219 189.236101,163.493321 187.515776,167.640383 Z" id="Path" fill="#FFB8B8"></path>
                        <path d="M17.1125296,213.9604 L16.4666667,213.94796 C16.7164631,206.866014 17.4826708,199.810972 18.7593542,192.83749 C21.5522077,177.907333 26.19624,168.101934 32.5624659,163.693733 L32.9333333,164.21498 C18.0617705,174.512389 17.1200991,213.566977 17.1125296,213.9604 Z" id="Path" fill="#2F2E41"></path>
                        <path d="M23.9277379,213.093733 L23.4,213.081443 C23.4113464,212.384759 23.7411826,195.965349 29.163629,191.427066 L29.4666667,191.941901 C24.2629861,196.297105 23.9303159,212.926319 23.9277379,213.093733 Z" id="Path" fill="#2F2E41"></path>
                        <circle id="Oval" fill="#000000" cx="36.8333333" cy="162.393733" r="3.03333333"></circle>
                        <circle id="Oval" fill="#000000" cx="35.1" cy="188.393733" r="3.03333333"></circle>
                        <path d="M23.2370421,165.973022 C23.9502491,169.802183 22.0913759,173.227066 22.0913759,173.227066 C22.0913759,173.227066 19.0761652,170.443616 18.3629582,166.614444 C17.6497512,162.785273 19.5086206,159.3604 19.5086206,159.3604 C19.5086206,159.3604 22.5238313,162.143847 23.2370421,165.973022 Z" id="Path" fill="#2F2E41"></path>
                        <path d="M34.8920672,175.176609 C31.3022021,176.426615 27.7333333,175.490401 27.7333333,175.490401 C27.7333333,175.490401 29.9847469,172.52753 33.5745964,171.277524 C37.1644458,170.027518 40.7333333,170.963732 40.7333333,170.963732 C40.7333333,170.963732 38.4819166,173.926603 34.8920672,175.176609 Z" id="Path" fill="#2F2E41"></path>
                        <path d="M34.6285766,199.558608 C33.2377663,200.169682 31.7566228,200.259145 30.3333333,199.818046 C32.1793835,196.530331 35.2333075,195.065021 38.1333333,196.075511 C37.2032589,197.645782 35.9947016,198.84687 34.6285766,199.558608 L34.6285766,199.558608 Z" id="Path" fill="#2F2E41"></path>
                    </g>
                </g>
            </g>
        </g>
    </g>
</svg>