<?xml version="1.0" encoding="UTF-8"?>
<svg width="260px" height="224px" viewBox="0 0 260 224" version="1.1" xmlns="http://www.w3.org/2000/svg" xmlns:xlink="http://www.w3.org/1999/xlink">
    <!-- Generator: Sketch 59.1 (86144) - https://sketch.com -->
    <title>illustration</title>
    <desc>Created with Sketch.</desc>
    <g id="Post" stroke="none" stroke-width="1" fill="none" fill-rule="evenodd">
        <g id="Desktop-HD" transform="translate(-445.000000, -3534.000000)" fill-rule="nonzero">
            <g id="content" transform="translate(0.000000, 100.000000)">
                <g id="recommended" transform="translate(110.000000, 3341.000000)">
                    <g id="posts" transform="translate(0.000000, 73.000000)">
                        <g id="post" transform="translate(310.000000, 0.000000)">
                            <g id="illustration" transform="translate(25.000000, 20.000000)">
                                <circle id="Oval" fill="#FF6584" cx="9.21641791" cy="15.7811978" r="9.21641791"></circle>
                                <polygon id="Path" fill="#E6E6E6" points="55.2587065 57.8468063 55.2587065 54.2727385 41.3283582 54.2727385 41.3283582 57.8468063 38.5422886 57.8468063 38.5422886 7.53492919 8.73134328 7.53492919 8.73134328 91.9379143 33.2487562 91.9379143 38.5422886 91.9379143 63.0597015 91.9379143 63.0597015 57.8468063"></polygon>
                                <path d="M158.153693,48.2811978 C158.153693,48.2811978 158.135157,48.2993072 158.103018,48.3310277 L158.103291,48.2811978 L158.101958,48.3320621 C157.411153,49.0142389 149.719688,56.7209088 146.735668,64.5376381 C145.745119,63.4185513 145.044512,62.7358171 145.044512,62.7358171 C145.044512,62.7358171 145.032378,62.7476811 145.011308,62.7684861 L145.011507,62.7358171 L145.010641,62.7691627 C144.447689,63.3250315 136.791045,70.9974433 136.791045,77.0772819 C136.791045,82.9472626 139.987212,85.2638555 144.101101,85.5594791 L143.802657,91.3495678 L144.636317,91.3495678 L144.728499,85.5889588 C144.833413,85.5913633 144.938628,85.5929718 145.044512,85.5929718 C148.084339,85.5929718 150.738509,84.6105844 152.170721,82.0856589 C153.622544,82.6674431 155.156231,83.0111228 156.714343,83.1038268 L156.258941,91.9379143 L157.530898,91.9379143 L157.671521,83.1488007 C157.831579,83.1524586 157.99215,83.1549019 158.153693,83.1549019 C165.108414,83.1549019 170.746269,79.7924279 170.746269,70.1623187 C170.746269,60.5322094 158.153693,48.2811978 158.153693,48.2811978 Z" id="Path" fill="#F2F2F2"></path>
                                <path d="M127.943504,54.5549719 L127.943504,49.5226562 L112.471313,49.5226562 L112.471313,54.5549719 L105.287795,54.5549719 L105.287795,34.6497774 L98.3805667,34.6497774 L98.3805667,26.9379143 L82.9083751,26.9379143 L82.9083751,34.6497774 L75.7248576,34.6497774 L75.7248576,65.8982935 C74.6833323,64.5988075 73.5662866,63.3613022 72.3794686,62.1921456 C72.3794686,62.1921456 72.3671572,62.2039282 72.3458608,62.2245877 L72.3460459,62.1921456 L72.3451701,62.2252625 C71.7756774,62.777319 64.0298507,70.3971107 64.0298507,76.4352516 C64.0298507,82.264974 67.2632459,84.5656789 71.4250693,84.859275 L71.1231156,90.6096533 L71.9665186,90.6096533 L72.0597579,84.8885525 C72.1658778,84.8909405 72.2723541,84.8925379 72.3794686,84.8925379 C73.5122063,84.9067507 74.6404384,84.7478168 75.7248714,84.4212715 L75.7248714,91.9379143 L134.850746,91.9379143 L134.850746,54.5549719 L127.943504,54.5549719 Z" id="Path" fill="#F2F2F2"></path>
                                <path d="M247.264897,48.2689028 C247.264897,48.2689028 247.246151,48.2870172 247.213648,48.3187467 L247.213924,48.2689028 L247.212577,48.3197814 C246.489487,49.0260516 238.18135,57.2598418 235.418282,65.3519785 L235.418282,61.3405773 L208.903171,21.1170187 L182.38806,61.3405773 L182.38806,91.5775972 L235.418282,91.5775972 L235.418282,75.9439649 C237.112833,80.7030749 241.065123,82.7641495 245.809262,83.1013366 L245.348705,91.9379143 L246.635058,91.9379143 L246.777273,83.1463232 C246.939142,83.1499822 247.101531,83.1524261 247.264903,83.1524261 C254.298337,83.1524261 260,79.7890042 260,70.1561804 C260,60.5233566 247.264897,48.2689028 247.264897,48.2689028 Z" id="Path" fill="#F2F2F2"></path>
                                <ellipse id="Oval" fill="#F2F2F2" cx="42.6865672" cy="99.2140337" rx="34.9253731" ry="3.39552239"></ellipse>
                                <ellipse id="Oval" fill="#F2F2F2" cx="236.716418" cy="139.960302" rx="15.5223881" ry="1.45522388"></ellipse>
                                <ellipse id="Oval" fill="#F2F2F2" cx="68.880597" cy="114.736422" rx="15.5223881" ry="1.45522388"></ellipse>
                                <path d="M243.507463,134.053603 C243.507463,138.072107 241.118655,139.475228 238.171654,139.475228 C238.103384,139.475228 238.035218,139.47447 237.967158,139.472954 C237.830616,139.470027 237.695373,139.463526 237.561747,139.454423 C234.902136,139.266187 232.835821,137.790908 232.835821,134.053611 C232.835821,130.185953 237.778263,125.305622 238.149521,124.944444 L238.150171,124.943797 C238.164478,124.929818 238.171629,124.922989 238.171629,124.922989 C238.171629,124.922989 243.507463,130.0351 243.507463,134.053603 Z" id="Path" fill="#000000"></path>
                                <path d="M238.071704,138.862637 L240.187759,136.135318 L238.066415,139.162097 L238.060779,139.475228 C237.912728,139.4723 237.766084,139.465798 237.621195,139.456693 L237.849268,135.435619 L237.847502,135.404405 L237.851386,135.398553 L237.872902,135.018782 L235.746269,131.984525 L237.879599,134.733954 L237.884539,134.814591 L238.056906,131.776431 L236.236239,128.641038 L238.079106,131.243179 L238.258526,124.944448 L238.259231,124.922989 L238.259231,124.9438 L238.22927,129.910724 L240.041827,127.941642 L238.221871,130.338613 L238.173929,133.05878 L239.866283,130.448187 L238.166883,133.459042 L238.140092,134.971292 L240.597015,131.337791 L238.130927,135.499003 L238.071704,138.862637 Z" id="Path" fill="#3F3D56"></path>
                                <ellipse id="Oval" fill="#F2F2F2" cx="29.1044776" cy="189.922989" rx="29.1044776" ry="2.91044776"></ellipse>
                                <path d="M41.7164179,178.832491 C41.7164179,186.333696 37.1559542,188.95284 31.5298493,188.95284 C31.3995156,188.95284 31.2693897,188.951423 31.1394716,188.94859 C30.8787985,188.943127 30.6206102,188.930994 30.3655271,188.913998 C25.2880635,188.562637 21.3432836,185.808777 21.3432836,178.832491 C21.3432836,171.612865 30.7788766,162.502917 31.4876429,161.82871 L31.4888867,161.827499 C31.5161989,161.801404 31.5298493,161.788661 31.5298493,161.788661 C31.5298493,161.788661 41.7164179,171.331289 41.7164179,178.832491 Z" id="Path" fill="#000000"></path>
                                <path d="M31.3499721,187.809363 L35.1588578,182.71836 L31.3404571,188.368358 L31.3303107,188.95284 C31.0638172,188.947376 30.7998639,188.93524 30.5390851,188.918242 L30.9496119,181.412226 L30.9464403,181.353958 L30.9534179,181.343034 L30.9921207,180.634129 L27.1641791,174.97017 L31.0041643,180.102448 L31.0130564,180.252967 L31.3233187,174.58173 L28.0461398,168.729011 L31.3632901,173.586349 L31.6862477,161.828716 L31.6875192,161.788661 L31.6875192,161.827505 L31.6336012,171.099112 L34.8961933,167.423486 L31.6202802,171.897842 L31.5339883,176.975495 L34.5802134,172.102381 L31.5213017,177.722641 L31.4730782,180.545515 L35.8955224,173.762965 L31.456577,181.530578 L31.3499721,187.809363 Z" id="Path" fill="#3F3D56"></path>
                                <path d="M82.4626866,63.8219235 C82.4626866,79.6279823 72.9069731,85.1468695 61.119403,85.1468695 C49.3318328,85.1468695 39.7761194,79.6279823 39.7761194,63.8219235 C39.7761194,48.0158647 61.119403,27.9080635 61.119403,27.9080635 C61.119403,27.9080635 82.4626866,48.0158647 82.4626866,63.8219235 Z" id="Path" fill="#000000"></path>
                                <polygon id="Path" fill="#3F3D56" points="59.7893575 82.8334745 60.0027001 69.5801717 68.880597 53.1836252 60.0360264 67.5011303 60.1319077 61.541708 66.2505542 49.6791209 60.1573121 59.9645708 60.1573121 59.9648465 60.3299531 49.2467112 66.881841 39.8026401 60.3569965 47.5611957 60.4648971 27.9080635 59.7874453 53.9254505 59.8431712 52.8521478 53.1817437 42.5584248 59.7363632 54.9124368 59.11573 66.8825748 59.0971547 66.564886 51.4179104 55.7325812 59.0739355 67.687276 58.9963564 69.1841638 58.9824249 69.206777 58.9887077 69.3297711 57.4141786 99.6991083 59.5181036 99.6991083 59.770509 84.0126735 67.4076856 72.0872104"></polygon>
                                <path d="M45.5970149,63.8219235 C45.5970149,79.6279823 36.0413015,85.1468695 24.2537313,85.1468695 C12.4661612,85.1468695 2.91044776,79.6279823 2.91044776,63.8219235 C2.91044776,48.0158647 24.2537313,27.9080635 24.2537313,27.9080635 C24.2537313,27.9080635 45.5970149,48.0158647 45.5970149,63.8219235 Z" id="Path" fill="#000000"></path>
                                <polygon id="Path" fill="#3F3D56" points="22.9238168 82.8334745 23.1371628 69.5801717 32.0149254 53.1836252 23.1704896 67.5011303 23.2663724 61.541708 29.3851146 49.6791209 23.2917772 59.9645708 23.2917772 59.9648465 23.4644208 49.2467112 30.0161381 39.8026401 23.4914647 47.5611957 23.5990938 27.9080635 22.9219046 53.9254505 22.9776313 52.8521478 16.3160996 42.5584248 22.8708217 54.9124368 22.2501787 66.8825748 22.2316031 66.564886 14.5522388 55.7325812 22.2083837 67.687276 22.1308033 69.1841638 22.1168716 69.206777 22.1231545 69.3297711 20.5486007 99.6991083 22.6525586 99.6991083 22.904968 84.0126735 30.5422641 72.0872104"></polygon>
                                <path d="M73.7313433,49.4406449 C73.7313433,70.8725898 60.9180012,78.3558247 45.1119417,78.3558247 C29.3058821,78.3558247 16.4925373,70.8725898 16.4925373,49.4406449 C16.4925373,28.0087 45.1119528,0.743884412 45.1119528,0.743884412 C45.1119528,0.743884412 73.7313433,28.0087111 73.7313433,49.4406449 Z" id="Path" fill="#F2F2F2"></path>
                                <polygon id="Path" fill="#3F3D56" points="43.642093 74.967498 43.9383766 57.0574403 56.2686567 34.899986 43.9849515 54.2477979 44.1179425 46.1947759 52.6161756 30.1642435 44.1532945 44.0636367 44.1532945 44.0636367 44.3929026 29.5797167 53.4926813 16.8174088 44.4304992 27.302239 44.5800439 0.743884412 43.6395679 35.9023077 43.7167251 34.4518763 34.4648766 20.5417352 43.5685833 37.2361644 42.7063867 53.4122084 42.6808547 52.9828388 32.0149254 38.3443127 42.648589 54.4996874 42.5405689 56.5225197 42.5212095 56.5528346 42.5301878 56.7190155 40.3431322 97.7588098 43.2652854 97.7588098 43.6157193 76.5609607 54.2232898 60.4455465"></polygon>
                                <path d="M72.761194,111.826149 C72.7620561,112.213641 72.6962809,112.598395 72.5667359,112.963589 C72.3778557,113.49194 72.0619992,113.965756 71.646969,114.343332 C71.2105185,114.738425 70.6786145,115.012903 70.1037281,115.139691 C69.8616601,115.194404 69.6142281,115.221842 69.366055,115.221496 C68.7473905,115.220248 68.1405737,115.051734 67.6098454,114.733791 C67.1187309,114.435451 66.7106086,114.018282 66.4230933,113.520733 C65.711071,112.284039 65.8481824,110.734095 66.7662479,109.641621 C67.6843134,108.549146 69.1874237,108.147268 70.5281478,108.635822 C71.8688719,109.124377 72.7611078,110.39911 72.761194,111.826152 L72.761194,111.826149 Z" id="Path" fill="#3F3D56"></path>
                                <polygon id="Path" fill="#F2F2F2" points="66.8411164 109.443156 67.2093714 109.400601 67.9104478 110.238196 67.463733 111.208632 66.3159419 111.340899 65.9701493 110.926559"></polygon>
                                <polygon id="Path" fill="#F2F2F2" points="68.5024259 113.148376 67.5322766 113.281198 66.9402985 112.443727 67.3187369 111.473434 68.2886189 111.340899 68.880597 112.178083"></polygon>
                                <path d="M67.9104478,114.810744 L67.5902223,115.221496 C66.9197862,115.002153 66.3626456,114.695445 65.9701493,114.329641 L67.1204247,114.251347 L67.9104478,114.810744 Z" id="Path" fill="#F2F2F2"></path>
                                <polygon id="Path" fill="#F2F2F2" points="69.472523 110.237928 68.5025074 110.37075 67.9104478 109.533279 68.288671 108.563274 69.2589539 108.430452 69.8507463 109.267922"></polygon>
                                <polygon id="Path" fill="#F2F2F2" points="71.4128736 113.148376 70.4427244 113.281198 69.8507463 112.443727 70.2289174 111.473722 71.1990667 111.340899 71.7910448 112.17837"></polygon>
                                <path d="M69.8507463,114.800462 L69.635862,115.162458 C69.3880212,115.201944 69.1346885,115.221746 68.880597,115.221496 C68.6216495,115.221557 68.36352,115.201007 68.1111148,115.160233 L67.9104478,114.97422 L68.2880802,114.338228 L69.2582295,114.251347 L69.8507463,114.800462 Z" id="Path" fill="#F2F2F2"></path>
                                <path d="M72.761194,110.212877 L71.5702371,110.37075 L70.8208955,109.346585 L71.1905801,108.430452 C71.858423,108.86738 72.4009149,109.483032 72.761194,110.212877 Z" id="Path" fill="#F2F2F2"></path>
                                <path d="M72.761194,113.281198 C72.6105109,114.024205 72.35853,114.690521 72.0274311,115.221496 L71.7910448,114.672396 L72.0852917,113.433135 L72.761194,113.281198 Z" id="Path" fill="#F2F2F2"></path>
                                <ellipse id="Oval" fill="#F2F2F2" cx="151.828358" cy="219.997616" rx="67.4253731" ry="3.88059701"></ellipse>
                                <path d="M118.358209,209.091831 L104.040119,221.937914 C97.6202121,219.122755 93.3576756,214.33222 91.1940299,207.61983 L105.51212,194.773735 C105.60234,203.214573 109.973105,207.90961 118.358209,209.091831 Z" id="Path" fill="#E6E6E6"></path>
                                <polygon id="Rectangle" fill="#3F3D56" transform="translate(99.322683, 204.580645) rotate(-40.499160) translate(-99.322683, -204.580645) " points="93.0213919 204.437985 105.623781 204.446796 105.623975 204.723305 93.0215853 204.714494"></polygon>
                                <polygon id="Rectangle" fill="#3F3D56" transform="translate(100.461344, 206.363759) rotate(-42.058890) translate(-100.461344, -206.363759) " points="94.2428612 206.221184 106.679631 206.229942 106.679826 206.506334 94.2430559 206.497576"></polygon>
                                <path d="M125.149254,162.656757 L106.1007,164.699108 C102.561617,158.602679 101.915864,152.165971 104.085051,145.398176 L123.133605,143.355825 C118.282876,150.311573 119.071655,156.734163 125.149254,162.656757 Z" id="Path" fill="#F2F2F2"></path>
                                <polygon id="Rectangle" fill="#3F3D56" transform="translate(112.409550, 148.088986) rotate(-4.641280) translate(-112.409550, -148.088986) " points="106.104636 147.950093 118.714433 147.951532 118.714465 148.227879 106.104668 148.22644"></polygon>
                                <polygon id="Rectangle" fill="#3F3D56" transform="translate(112.286415, 150.200206) rotate(-6.201010) translate(-112.286415, -150.200206) " points="106.064161 150.06115 118.508627 150.063041 118.508669 150.339262 106.064203 150.337372"></polygon>
                                <path d="M107.865673,122.98269 L95.0746269,108.609558 C97.9163458,102.199632 102.725155,97.9555204 109.44776,95.8185113 L122.238806,110.191646 C113.795766,110.247784 109.082036,114.600545 107.865673,122.98269 Z" id="Path" fill="#E6E6E6"></path>
                                <polygon id="Rectangle" fill="#3F3D56" transform="translate(112.312906, 103.550233) rotate(-40.267680) translate(-112.312906, -103.550233) " points="112.17022 97.2503735 112.446792 97.2505666 112.455591 109.850093 112.179019 109.8499"></polygon>
                                <polygon id="Rectangle" fill="#3F3D56" transform="translate(110.522666, 104.680081) rotate(-41.827400) translate(-110.522666, -104.680081) " points="110.380074 98.4625368 110.656508 98.4627313 110.665258 110.897626 110.388824 110.897432"></polygon>
                                <polygon id="Rectangle" fill="#3F3D56" transform="translate(124.945805, 74.774390) rotate(-30.000000) translate(-124.945805, -74.774390) " points="117.46113 56.3761435 132.407918 56.3853039 132.43048 93.1726369 117.483692 93.1634765"></polygon>
                                <polygon id="Rectangle" fill="#000000" transform="translate(119.418952, 66.027840) rotate(-30.925350) translate(-119.418952, -66.027840) " points="113.41509 65.8858594 125.422642 65.893352 125.422815 66.1698212 113.415262 66.1623287"></polygon>
                                <polygon id="Rectangle" fill="#000000" transform="translate(121.058389, 68.313546) rotate(-30.925350) translate(-121.058389, -68.313546) " points="115.054527 68.1715655 127.062079 68.1790581 127.062252 68.4555274 115.054699 68.4480348"></polygon>
                                <polygon id="Rectangle" fill="#000000" transform="translate(122.165950, 70.249036) rotate(-30.925350) translate(-122.165950, -70.249036) " points="116.162087 70.1070553 128.16964 70.1145479 128.169812 70.3910172 116.16226 70.3835246"></polygon>
                                <polygon id="Rectangle" fill="#000000" transform="translate(123.827292, 72.737524) rotate(-30.925350) translate(-123.827292, -72.737524) " points="117.82343 72.5955432 129.830982 72.6030358 129.831155 72.879505 117.823602 72.8720125"></polygon>
                                <polygon id="Rectangle" fill="#000000" transform="translate(126.319304, 76.332070) rotate(-30.925350) translate(-126.319304, -76.332070) " points="120.315407 76.1900892 132.323029 76.1975818 132.323202 76.4740511 120.31558 76.4665584"></polygon>
                                <path d="M169.299514,95.6064647 C169.299514,95.6064647 176.41288,92.1637871 181.474711,93.447014 L169.299514,60.4054192 L169.299514,57.0125411 L186.532733,98.2723062 L186.532733,98.2723062 C190.841396,106.444737 196.288678,125.07113 187.001333,126.56641 C176.464537,128.262846 157.498303,134.624481 157.498303,134.624481 L153.283582,97.7270107 L169.299514,95.6064647 Z" id="Path" fill="#2F2E41"></path>
                                <path d="M127.089552,84.7623076 C127.089552,84.7623076 115.815847,70.5241358 112.893035,75.5493716 C109.970223,80.5746074 126.019384,89.0274665 126.019384,89.0274665 L127.089552,84.7623076 Z" id="Path" fill="#FFB9B9"></path>
                                <path d="M131.940299,84.7976177 L127.197346,82.2364217 C127.197346,82.2364217 124.179104,89.9200039 124.179104,91.2006005 C124.179104,92.4811971 128.922057,92.9080635 128.922057,92.9080635 L131.940299,84.7976177 Z" id="Path" fill="#D0CDE1"></path>
                                <circle id="Oval" fill="#FFB9B9" cx="148.91791" cy="41.9752277" r="11.1567164"></circle>
                                <path d="M157.451068,40.5200038 C157.451068,40.5200038 162.076632,54.6804513 165.440676,55.5386589 C168.80472,56.3968666 152.404998,62.8334367 152.404998,62.8334367 C152.404998,62.8334367 147.358927,50.8185098 144.835893,47.8147787 C142.31286,44.8110477 157.451068,40.5200038 157.451068,40.5200038 Z" id="Path" fill="#FFB9B9"></path>
                                <path d="M184.105804,122.407879 C193.128804,120.955048 188.14862,103.219299 183.92164,94.848362 C184.304693,95.1422619 184.648044,95.4851571 184.943012,95.8683814 C189.129062,101.344786 197.501164,124.935455 187.036039,126.620503 C176.570913,128.305551 157.733686,134.624481 157.733686,134.624481 L157.164179,129.638346 C162.546828,127.899427 175.89957,123.729208 184.105804,122.407879 Z" id="Path" fill="#000000" opacity="0.1"></path>
                                <path d="M198.892677,194.773735 C198.892677,194.773735 209.372744,203.326889 208.53434,204.182203 C207.695936,205.037517 198.892677,218.722563 191.347029,220.005536 C183.801381,221.288508 180.447761,221.288508 180.447761,220.005536 C180.447761,218.722563 182.543773,215.72896 186.316599,214.445985 C190.089424,213.16301 190.508625,204.609861 190.089421,202.899231 C189.670218,201.1886 198.892677,194.773735 198.892677,194.773735 Z" id="Path" fill="#2F2E41"></path>
                                <path d="M167.015464,131.714034 L173.772787,163.201333 C173.772787,163.201333 201.646738,194.268811 200.802079,194.688632 C199.957421,195.108452 191.510761,203.505078 189.821431,203.505078 C188.1321,203.505078 158.991151,170.758276 158.991151,170.758276 L148.432836,143.469274 L167.015464,131.714034 Z" id="Path" fill="#2F2E41"></path>
                                <path d="M167.015464,131.714034 L173.772787,163.201333 C173.772787,163.201333 201.646738,194.268811 200.802079,194.688632 C199.957421,195.108452 191.510761,203.505078 189.821431,203.505078 C188.1321,203.505078 158.991151,170.758276 158.991151,170.758276 L148.432836,143.469274 L167.015464,131.714034 Z" id="Path" fill="#000000" opacity="0.1"></path>
                                <path d="M173.656716,121.57763 C173.656716,121.57763 170.259284,135.972892 160.916304,145.710875 C151.573324,155.448858 147.326529,175.348192 147.326529,175.348192 L137.983566,215.146869 C137.983566,215.146869 121.421032,213.029917 122.270391,208.796015 L131.188679,173.654623 C131.188679,173.654623 141.381007,124.964745 146.901854,121.577627 C152.4227,118.19051 173.656716,121.57763 173.656716,121.57763 Z" id="Path" fill="#2F2E41"></path>
                                <path d="M137.306958,211.19381 C137.306958,211.19381 139.839197,219.233233 138.151039,220.079486 C136.462881,220.92574 106.49803,222.618253 104.809883,216.694477 C104.809883,216.694477 103.965801,213.732585 110.718444,213.732585 C117.471088,213.732585 124.645769,207.385675 124.645769,207.385675 L137.306958,211.19381 Z" id="Path" fill="#2F2E41"></path>
                                <path d="M149.458688,60.4483774 C149.458688,60.4483774 160.573101,49.4196859 163.565444,50.2680455 C166.557786,51.1164051 166.557786,55.3582115 166.557786,55.3582115 C166.557786,55.3582115 175.962292,56.6307523 175.107338,87.1717313 C174.252384,117.71271 182.801933,121.106171 179.809591,122.802885 C176.817248,124.499598 142.619047,132.134865 141.336609,124.499626 C140.054171,116.864387 140.481655,87.595932 143.901473,78.2639625 C147.321291,68.9319929 151.596068,62.993459 149.458688,60.4483774 Z" id="Path" fill="#575A89"></path>
                                <path d="M164.007051,62.9053589 C164.007051,62.9053589 176.703949,68.8354806 169.509041,80.2721432 C162.314133,91.7088058 156.812151,103.992636 149.194004,103.569052 C141.575857,103.145468 129.725428,95.9446094 126.339588,95.9446094 C122.953748,95.9446094 127.60928,83.660785 130.148659,83.2372041 C132.688037,82.8136231 144.538475,90.0144876 144.538475,90.0144876 C144.538475,90.0144876 148.770776,61.211038 164.007051,62.9053589 Z" id="Path" fill="#575A89"></path>
                                <path d="M155.750885,43.5394673 C154.814366,43.4826427 153.899921,43.8044967 152.9699,43.9300603 C149.642546,44.379291 146.181076,41.9239307 145.446404,38.5933242 C145.387515,38.1497959 145.257524,37.7190851 145.061601,37.3183268 C144.549508,36.4680977 143.383237,36.3059827 142.42182,36.5014931 C141.460402,36.6970036 140.549065,37.1545873 139.56996,37.2068286 C138.058202,37.2874933 136.606841,36.3410391 135.801174,35.0377027 C134.995507,33.7343662 134.767386,32.1306201 134.876148,30.5951345 L135.600876,31.3686431 C135.895362,30.7350844 136.009058,30.0301862 135.929027,29.3341574 C136.709996,29.1226442 137.542931,29.339383 138.128017,29.9063588 C138.767056,29.9755173 138.284756,28.7009873 138.759517,28.2605179 C138.958315,28.0760802 139.263101,28.1108776 139.532195,28.1135156 C140.891671,28.1268461 141.991421,27.0694201 143.062716,26.218186 C144.918881,24.7465734 147.089482,23.7397121 149.399076,23.2789833 C150.934189,22.9744971 152.566585,22.9255667 154.022428,23.5068813 C155.218036,23.9842822 156.218777,24.8537878 157.144651,25.7591439 C159.423909,27.9879097 161.442226,30.6066295 162.390447,33.674197 C163.161311,36.1867888 163.183147,38.8752678 162.4532,41.4004654 C162.071119,42.7118678 160.919624,47.2030708 159.233863,47.3076631 C157.115665,47.439122 158.387413,43.6994455 155.750885,43.5394673 Z" id="Path" fill="#2F2E41"></path>
                            </g>
                        </g>
                    </g>
                </g>
            </g>
        </g>
    </g>
</svg>